<ttFont>
          <CharString index="0">
            rmoveto
            157 140 48 30 100 hvcurveto
            54 16 44 13 39 4 82 635 rcurveline
            -430 hlineto
            -15 -121 281 -1 -54 -421 rlineto
            -43 -114 -143 -42 -114 hhcurveto
            -277 -99 277 266 -2 hvcurveto
            371 -4 191 409 391 hhcurveto
            182 115 -47 -35 59 hvcurveto
            48 137 -39 12 rlineto
            21 -67 -111 34 -185 hhcurveto
            -414 -329 -370 -549 3 callsubr
            139 -334 360 hhcurveto
            return
          </CharString>
          <CharString index="1">
            rmoveto
            -276 5 151 -163 292 hhcurveto
            344 195 172 472 61 hvcurveto
            114 903 rlineto
            -147 hlineto
            -112 -890 rlineto
            -389 -50 -139 -145 -245 hhcurveto
            -210 -101 121 201 -4 hvcurveto
            -1 57 4 62 9 72 115 911 rcurveline
            -150 hlineto
            -119 -937 -7 -59 -6 -60 1 -52 rlinecurve
            return
          </CharString>
          <CharString index="2">
            rmoveto
            -291 5 129 -169 249 hhcurveto
            333 227 352 360 -6 hvcurveto
            291 -5 -121 169 -250 hhcurveto
            -333 -234 -349 -363 6 hvcurveto
            154 3 rmoveto
            268 -5 135 329 253 hhcurveto
            172 69 -132 -219 3 hvcurveto
            -268 4 -128 -328 -250 hhcurveto
            -168 -82 127 223 -3 hvcurveto
            return
          </CharString>
          <CharString index="3">
            rmoveto
            61 52 53 67 4 hvcurveto
            54 3 44 callsubr
            -56 -52 -45 callgsubr
            -42 51 hhcurveto
            return
          </CharString>
          <CharString index="4">
            rmoveto
            -37 45 160 -52 170 hhcurveto
            297 226 145 282 -5 hvcurveto
            -4 208 -165 111 -142 93 -162 107 -116 78 5 182 rrcurveto
            201 6 188 40 123 hhcurveto
            108 123 -28 -57 57 hvcurveto
            48 116 rlineto
            34 -48 -100 51 -198 hhcurveto
            -263 -200 -145 -251 5 hvcurveto
            4 -230 183 -122 148 -96 rrcurveto
            156 -101 87 -89 -139 vvcurveto
            -193 -174 -79 -184 -145 -153 54 40 -38 vhcurveto
            return
          </CharString>
          <CharString index="5">
            6 callsubr
            97 713 rlineto
            153 106 193 149 132 hhcurveto
            105 35 -46 -109 -77 -20 -133 -21 -141 hvcurveto
            -17 -116 -42 -266 -17 -127 rrcurveto
            7 callgsubr
            18 125 43 268 16 117 22 147 19 140 1 72 rrcurveto
            191 1 -67 93 -164 hhcurveto
            -172 -181 -131 -150 -118 hvcurveto
            return
          </CharString>
          <CharString index="6">
            rmoveto
            -32 36 129 -32 129 hhcurveto
            223 167 103 202 169 -144 98 -95 72 hvcurveto
            -83 64 -91 60 121 vvcurveto
            104 90 67 144 131 82 -56 -16 12 vhcurveto
            29 140 rlineto
            17 -33 -99 27 -122 hhcurveto
            -203 -174 -104 -198 -165 110 -86 106 -83 hvcurveto
            94 -74 98 -62 -112 vvcurveto
            -121 -103 -54 -131 -131 -101 51 30 -42 vhcurveto
            return
          </CharString>
          <CharString index="7">
            -257 101 -174 217 vhcurveto
            25 116 rmoveto
            -123 -66 111 222 272 153 341 302 65 69 -15 -23 51 hvcurveto
            -64 -451 -20 -185 rlineto
            -104 -59 -140 -168 -168 hhcurveto
            return
          </CharString>
          <CharString index="8">
            22 -49 -51 4 -51 hhcurveto
            -228 -140 -169 -245 -32 hvcurveto
            -18 -124 -146 -1 -22 -118 rlineto
            152 hlineto
            return
          </CharString>
          <CharString index="9">
            rmoveto
            62 51 53 66 4 hvcurveto
            55 4 44 callsubr
            -50 -61 -51 -65 -1 hvcurveto
            -58 -1 38 -40 49 hhcurveto
            -420 hmoveto
            60 53 53 66 4 hvcurveto
            55 2 -34 40 -60 hhcurveto
            -50 -56 -51 -65 -4 hvcurveto
            -57 -3 45 callgsubr
            return
          </CharString>
          <CharString index="10">
            rmoveto
            61 53 52 66 3 hvcurveto
            56 3 -35 39 -59 hhcurveto
            -51 -56 -45 callgsubr
            -41 49 hhcurveto
            return
          </CharString>
          <CharString index="11">
            141 hlineto
            134 1073 29 288 72 -239 494 -1122 rlineto
            7 callgsubr
            193 -50 callgsubr
            rlineto
            -143 hlineto
            -134 -1096 -21 -238 -72 207 -491 1127 rlineto
            -158 hlineto
            return
          </CharString>
          <CharString index="12">
            -21 callgsubr
            138 1021 rlineto
            250 hlineto
            9 119 rlineto
            -243 hlineto
            21 162 rlineto
            return
          </CharString>
          <CharString index="13">
            -106 callgsubr
            endchar
          </CharString>
          <CharString index="14">
            rmoveto
            122 73 200 212 38 66 -115 104 rcurveline
            -308 -400 rlineto
            return
          </CharString>
          <CharString index="15">
            843 1 callgsubr
            4 -20 302 214 -78 -37 callsubr
            -42 737 -62 -15 callgsubr
            hintmask 1010000010000000
            1522 hmoveto
            -83 callgsubr
            hintmask 0001000001000000
            -55 callsubr
            -1625 -1426 rmoveto
            -95 callsubr
            hintmask 1100011000000000
            -87 callsubr
            hintmask 1100101000000000
            -12 callsubr
            hintmask 1100011000000000
            -99 callsubr
            hintmask 1100101000000000
            -46 callsubr
            7 callsubr
            -87 callsubr
            hintmask 1100010100000000
            -12 callsubr
            hintmask 1100100100000000
            -78 callgsubr
          </CharString>
          <CharString index="16">
            98 444 -105 callsubr
            return
          </CharString>
          <CharString index="17">
            rmoveto
            135 hlineto
            322 319 -63 67 -321 -270 -244 270 -67 -67 rlineto
            return
          </CharString>
          <CharString index="18">
            154 422 -106 callsubr
            return
          </CharString>
          <CharString index="19">
            rmoveto
            135 hlineto
            335 328 -63 67 -333 -279 -249 279 -67 -67 rlineto
            return
          </CharString>
          <CharString index="20">
            18 143 86 116 125 1 69 1 38 -15 25 -17 rrcurveto
            return
          </CharString>
          <CharString index="21">
            -84 callsubr
            endchar
          </CharString>
          <CharString index="22">
            1424 -16 115 -99 125 -104 -21 1407 122 -95 112 -82 66 0 23 callsubr
            94 1167 7 callsubr
            hintmask 0010100100000000
            -1 callgsubr
            -36 callgsubr
            hintmask 1000100100000000
            -69 callsubr
            hintmask 1000100100000000
            -72 callsubr
            1126 -125 -19 callgsubr
            hintmask 0101000010000000
            843 1195 rlineto
            hintmask 0100010010000000
            -60 callgsubr
            return
          </CharString>
          <CharString index="23">
            rmoveto
            -278 129 -171 243 180 127 113 66 51 vhcurveto
            -50 82 rlineto
            -83 callsubr
            return
          </CharString>
          <CharString index="24">
            -86 -87 -85 -61 -114 hhcurveto
            -159 -83 109 241 321 192 275 217 72 72 -17 -40 50 hvcurveto
            39 128 rlineto
            29 -57 -90 12 -72 hhcurveto
            -380 -195 -408 -315 hvcurveto
            return
          </CharString>
          <CharString index="25">
            1002 -16 116 -100 119 -98 -26 callgsubr
            -93 109 -57 41 -2 callsubr
            895 981 hintmask 00000000
            hintmask 10001010
            -35 callgsubr
            hintmask 00101010
            -70 callgsubr
            hintmask 10001010
            -87 callgsubr
            hintmask 00000000
            751 -100 rmoveto
            -57 callgsubr
            hintmask 01010001
            648 828 rlineto
            hintmask 01000101
            -73 callsubr
            return
          </CharString>
          <CharString index="26">
            -2 114 21 -143 155 hhcurveto
            106 111 79 92 33 hvcurveto
            -66 70 rlineto
            -45 -33 -42 -72 -80 -99 -35 144 -146 hhcurveto
            return
          </CharString>
          <CharString index="27">
            605 -17 -105 callgsubr
            return
          </CharString>
          <CharString index="28">
            148 1 callgsubr
            4 -20 302 214 -78 -37 callsubr
            -61 -15 callgsubr
            hintmask 1010000100000000
            828 hmoveto
            -83 callgsubr
            hintmask 0001000010000000
            -55 callsubr
            -931 -1426 rmoveto
            -95 callsubr
            hintmask 1100011000000000
            -87 callsubr
            hintmask 1100101000000000
            -12 callsubr
            hintmask 1100011000000000
            -78 callgsubr
          </CharString>
          <CharString index="29">
            97 hmoveto
            -21 callgsubr
            98 721 rlineto
            151 108 190 146 131 hhcurveto
            104 35 -47 -109 -77 -20 -132 -21 -141 hvcurveto
            -17 -116 -43 -269 18 callgsubr
            43 271 16 117 22 147 19 139 1 71 rrcurveto
            192 1 -67 94 -164 hhcurveto
            -173 -185 -135 -152 -117 hvcurveto
            44 289 return
          </CharString>
          <CharString index="30">
            rmoveto
            -209 87 -76 168 168 166 131 150 107 vhcurveto
            return
          </CharString>
          <CharString index="31">
            rmoveto
            164 112 148 133 69 hvcurveto
            -156 43 113 -125 213 39 callsubr
            87 rlineto
            -116 -114 -125 -55 -109 hhcurveto
            -212 -44 4 callgsubr
            7 hvcurveto
            231 12 481 120 331 vvcurveto
            141 -89 109 -190 -102 -93 -28 -50 -80 vhcurveto
            68 -111 -92 10 -81 hhcurveto
            -439 -194 -428 -313 -250 70 -181 207 hvcurveto
            33 116 rmoveto
            -105 -51 107 226 272 153 341 302 67 73 -21 -34 61 hvcurveto
            -126 -130 -77 -198 -5 -222 -1 -20 1 -19 1 -20 rrcurveto
            -129 -70 -102 -153 -121 hhcurveto
            454 450 rmoveto
            return
          </CharString>
          <CharString index="32">
            93 3 6 callsubr
            98 722 rlineto
            150 99 173 144 120 hhcurveto
            100 35 -47 -109 -77 -20 -133 -21 -141 hvcurveto
            -17 -116 -42 -266 18 callgsubr
            42 268 16 117 15 103 15 100 7 75 rrcurveto
            122 101 145 105 103 hhcurveto
            101 35 -47 -108 -82 -18 -129 -22 -140 hvcurveto
            -17 -116 -43 -266 -17 -127 rrcurveto
            5 callgsubr
            18 125 43 267 16 117 rrcurveto
            23 147 19 142 71 vvcurveto
            207 -78 77 -150 -147 -152 -104 -127 -106 vhcurveto
            155 -12 -68 76 -144 hhcurveto
            -158 -164 -124 -145 -109 hvcurveto
            return
          </CharString>
          <CharString index="33">
            rmoveto
            155 hlineto
            340 860 84 236 18 -236 89 -860 rlineto
            154 hlineto
            647 1540 rlineto
            -152 hlineto
            -443 -1105 rlineto
            hintmask 11010000
            -99 -259 -20 268 -109 1096 rlineto
            -144 hlineto
            23 -226 -352 -879 -86 -259 -40 268 -146 1096 -26 callsubr
            endchar
          </CharString>
          <CharString index="34">
            -36 41 rlineto
            -723 hlineto
            -17 -119 rlineto
            583 hlineto
            -167 -183 -621 -792 rlineto
            return
          </CharString>
          <CharString index="35">
            -90 callgsubr
            hintmask 1000001100000000
            -33 callsubr
            7 callsubr
            return
          </CharString>
          <CharString index="36">
            61 -159 31 -65 21 -33 172 -2 rcurveline
            -32 43 -34 83 -92 212 -31 82 -88 197 -68 62 231 62 144 202 -5 252 rrcurveto
            230 -4 -166 122 -301 hhcurveto
            return
          </CharString>
          <CharString index="37">
            47 -88 rmoveto
            69 -38 128 186 rlineto
            -48 61 79 -26 97 hhcurveto
            333 227 352 360 -6 hvcurveto
            -3 161 -38 123 -76 79 138 199 rcurveline
            -69 38 -131 -188 rlineto
            31 -54 -65 17 -78 hhcurveto
            -333 -234 -349 -363 6 hvcurveto
            2 -139 31 -111 58 -78 rrcurveto
            97 129 rmoveto
            -22 54 -11 68 -1 80 rrcurveto
            268 -5 135 329 253 hhcurveto
            57 46 -15 -28 36 hvcurveto
            -444 -831 rmoveto
            497 768 34 -60 16 -83 2 -102 rlinecurve
            -268 4 -128 -328 -250 hhcurveto
            -75 -58 25 48 -42 hvcurveto
            return
          </CharString>
          <CharString index="38">
            -85 callgsubr
            hintmask 1000001100000000
            -58 callgsubr
            return
          </CharString>
          <CharString index="39">
            -59 callsubr
            163 -21 22 -21 -3 callgsubr
            -690 681 hintmask 00000000
            hintmask 11010010
            -96 callgsubr
            hintmask 11100010
            -56 callsubr
            hintmask 00000000
            -385 1048 rmoveto
            330 270 rlineto
            hintmask 00000101
            -77 callgsubr
            hintmask 00001001
            -340 -347 rlineto
            endchar
          </CharString>
          <CharString index="40">
            rmoveto
            330 270 rlineto
            hintmask 00010100
            -77 callgsubr
            hintmask 00100100
            -340 -347 rlineto
            endchar
          </CharString>
          <CharString index="41">
            21 -53 callsubr
            return
          </CharString>
          <CharString index="42">
            1614 -90 callsubr
            return
          </CharString>
          <CharString index="43">
            1603 -93 callgsubr
            return
          </CharString>
          <CharString index="44">
            -98 callsubr
            endchar
          </CharString>
          <CharString index="45">
            hmoveto
            537 hlineto
            31 107 rlineto
            -142 84 -198 270 308 vvcurveto
            435 254 223 323 247 256 -158 -358 -341 -240 -336 -233 -127 vhcurveto
            16 -107 rlineto
            578 hlineto
            hintmask 01111000
            10 123 rlineto
            -415 hlineto
            244 168 191 369 265 vvcurveto
            376 -284 245 -356 -420 -319 -263 -510 vhcurveto
            hintmask 10111000
            -270 182 -283 146 -104 vhcurveto
            -394 hlineto
            endchar
          </CharString>
          <CharString index="46">
            rmoveto
            173 160 87 186 158 -104 92 -166 -158 -184 -88 -188 -155 101 -92 178 hvcurveto
            6 83 rmoveto
            -107 -71 68 91 150 120 47 103 106 67 -61 -92 -157 -106 -46 -112 hvcurveto
            return
          </CharString>
          <CharString index="47">
            -1 callgsubr
            -96 callsubr
            return
          </CharString>
          <CharString index="48">
            155 21 -21 431 115 849 135 0 -20 return
          </CharString>
          <CharString index="49">
            -2 callgsubr
            hintmask 01100000
            -18 callgsubr
            hintmask 10100000
            -63 callgsubr
            return
          </CharString>
          <CharString index="50">
            rmoveto
            81 53 76 47 89 121 70 -174 153 hhcurveto
            151 116 107 93 28 hvcurveto
            -56 57 rlineto
            -64 -41 -68 -66 -101 -122 -70 173 -152 hhcurveto
            -154 -121 -118 -79 -27 hvcurveto
            return
          </CharString>
          <CharString index="51">
            55 119 15 -115 129 -734 rlineto
            return
          </CharString>
          <CharString index="52">
            -64 callgsubr
            7 callsubr
            return
          </CharString>
          <CharString index="53">
            80 635 rlineto
            6 51 127 10 51 hhcurveto
            214 112 -81 -162 3 hvcurveto
            -239 5 -141 -171 -234 hhcurveto
            return
          </CharString>
          <CharString index="54">
            -21 -38 callgsubr
            return
          </CharString>
          <CharString index="55">
            hlineto
            179 1419 443 -9 17 120 rlineto
            -1044 hlineto
            -17 -120 451 9 return
          </CharString>
          <CharString index="56">
            63 -19 130 -90 -21 callsubr
            return
          </CharString>
          <CharString index="57">
            rmoveto
            110 64 190 165 58 106 -103 90 rcurveline
            -312 -375 rlineto
            -341 -52 rmoveto
            106 76 181 151 54 109 -101 89 rcurveline
            -312 -375 rlineto
            endchar
          </CharString>
          <CharString index="58">
            rmoveto
            -57 -1 40 -35 50 hhcurveto
            73 46 45 83 2 hvcurveto
            return
          </CharString>
          <CharString index="59">
            123 hlineto
            947 -50 callgsubr
            rlineto
            -123 hlineto
            -879 -785 rmoveto
            252 157 221 219 172 -82 123 -198 -239 -171 -213 -212 9 callgsubr
            hvcurveto
            22 94 rmoveto
            -115 -65 90 127 141 98 189 168 113 58 -82 -125 -139 -87 -201 -170 hvcurveto
            return
          </CharString>
          <CharString index="60">
            156 hlineto
            47 348 rlineto
            265 hlineto
            15 134 -263 -8 40 293 -155 -18 -39 -280 -404 -12 98 126 485 628 -101 78 rlineto
            -38 hlineto
            return
          </CharString>
          <CharString index="61">
            558 -1021 rmoveto
            -95 callsubr
            return
          </CharString>
          <CharString index="62">
            -97 callsubr
            endchar
          </CharString>
          <CharString index="63">
            5 callgsubr
            62 497 231 252 53 -90 89 -163 83 -152 rlinecurve
            95 -173 78 -150 20 -21 rrcurveto
            181 hlineto
            -61 83 -67 120 -81 142 -99 171 -103 192 -91 146 622 676 rcurveline
            -178 hlineto
            -746 -828 105 828 -26 callsubr
            endchar
          </CharString>
          <CharString index="64">
            45 callsubr
            222 1634 rlineto
            -148 hlineto
            return
          </CharString>
          <CharString index="65">
            20 -16 116 -79 -21 1046 110 return
          </CharString>
          <CharString index="66">
            7 callgsubr
            207 1637 rlineto
            -148 hlineto
            70 -1009 rmoveto
            419 -625 rlineto
            173 hlineto
            -420 602 95 47 156 98 93 126 rlinecurve
            65 87 39 86 8 91 rrcurveto
            -143 hlineto
            -32 -101 -51 -85 -68 -78 -88 -105 -141 -82 -105 -60 1 -1 rcurveline
            endchar
          </CharString>
          <CharString index="67">
            250 -17 123 1424 -20 return
          </CharString>
          <CharString index="68">
            -546 21 -21 1144 -20 return
          </CharString>
          <CharString index="69">
            636 rmoveto
            142 hlineto
            138 992 -56 17 -50 -41 -216 -104 -138 -36 rlinecurve
            5 -95 40 12 231 61 19 13 rlinecurve
            return
          </CharString>
          <CharString index="70">
            116 -5 -21 -3 callsubr
            return
          </CharString>
          <CharString index="71">
            -93 callsubr
            endchar
          </CharString>
          <CharString index="72">
            116 1328 120 return
          </CharString>
          <CharString index="73">
            vvcurveto
            -143 -70 -50 -100 -43 -28 9 9 -17 vhcurveto
            return
          </CharString>
          <CharString index="74">
            -83 -2 -108 14 -80 14 rrcurveto
            return
          </CharString>
          <CharString index="75">
            -19 callgsubr
            hintmask 11001000
            843 1195 rlineto
            hintmask 10101000
            -28 callgsubr
          </CharString>
          <CharString index="76">
            -89 callgsubr
            endchar
          </CharString>
          <CharString index="77">
            -93 -87 -4 -31 rlineto
            70 -50 32 -96 -80 vvcurveto
            return
          </CharString>
          <CharString index="78">
            90 127 rmoveto
            54 -25 40 -79 -104 vvcurveto
            -162 -96 -120 -108 -53 vhcurveto
            -2 -18 55 -67 rlineto
            184 71 126 176 223 vvcurveto
            102 -36 135 -132 59 vhcurveto
            -79 -97 rlineto
            return
          </CharString>
          <CharString index="79">
            -73 callsubr
            endchar
          </CharString>
          <CharString index="80">
            11 -12 -32 2 -20 hhcurveto
            -180 -147 -158 -109 -55 hvcurveto
            return
          </CharString>
          <CharString index="81">
            rlineto
            -150 hlineto
            return
          </CharString>
          <CharString index="82">
            158 361 -24 -409 -49 -1022 rlineto
            153 hlineto
            44 -50 callgsubr
            rlineto
            -218 hlineto
            -460 -1070 -92 -234 -31 236 -173 1068 rlineto
            -194 hlineto
            endchar
          </CharString>
          <CharString index="83">
            512 -12 10 130 -508 -8 73 582 632 -7 11 120 rlineto
            -779 hlineto
            return
          </CharString>
          <CharString index="84">
            rmoveto
            -583 399 -53 -85 452 -377 -556 -383 29 -89 695 415 rlineto
            return
          </CharString>
          <CharString index="85">
            -103 -118 -83 -83 -42 hvcurveto
            endchar
          </CharString>
          <CharString index="86">
            -21 1140 -20 return
          </CharString>
          <CharString index="87">
            -66 callgsubr
            endchar
          </CharString>
          <CharString index="88">
            -62 -502 122 1520 -20 return
          </CharString>
          <CharString index="89">
            123 hlineto
            681 -50 callgsubr
            rlineto
            -123 hlineto
            endchar
          </CharString>
          <CharString index="90">
            -115 -83 -16 -112 hhcurveto
            -76 hlineto
            56 -751 rmoveto
            return
          </CharString>
          <CharString index="91">
            243 8 rmoveto
            -13 55 64 -11 54 hhcurveto
            439 202 422 317 258 -101 175 -217 -169 -139 -117 -104 -74 hvcurveto
            return
          </CharString>
          <CharString index="92">
            5 callgsubr
            69 540 rlineto
            -4 30 89 -10 93 hhcurveto
            364 257 238 393 -7 hvcurveto
            265 -4 -164 124 -289 hhcurveto
            return
          </CharString>
          <CharString index="93">
            -73 -47 -58 -70 -1 hvcurveto
            endchar
          </CharString>
          <CharString index="94">
            hstemhm
            112 157 return
          </CharString>
          <CharString index="95">
            38 121 rlineto
            return
          </CharString>
          <CharString index="96">
            21 -21 64 94 547 94 -54 94 547 94 50 -20 hstemhm
            201 123 437 130 146 123 437 130 return
          </CharString>
          <CharString index="97">
            116 86 55 39 44 vhcurveto
            -39 78 rlineto
            -38 -49 -55 -21 -55 hhcurveto
            return
          </CharString>
          <CharString index="98">
            -66 -16 118 1329 116 return
          </CharString>
          <CharString index="99">
            -199 -16 114 946 112 return
          </CharString>
          <CharString index="100">
            -21 22 -21 hstemhm
            return
          </CharString>
          <CharString index="101">
            73 581 rlineto
            7 62 113 6 30 hhcurveto
            241 89 -88 -152 2 hvcurveto
            -229 3 -169 -125 -210 hhcurveto
            return
          </CharString>
          <CharString index="102">
            rmoveto
            814 hlineto
            14 120 rlineto
            -815 hlineto
            return
          </CharString>
          <CharString index="103">
            47 0 125 1282 122 -65 66 return
          </CharString>
          <CharString index="104">
            hstemhm
            152 737 return
          </CharString>
          <CharString index="105">
            hstemhm
            79 154 return
          </CharString>
          <CharString index="106">
            1748 -68 callgsubr
            return
          </CharString>
          <CharString index="107">
            523 7 -21 1154 -20 return
          </CharString>
          <CharString index="108">
            44 37 43 63 80 hhcurveto
            return
          </CharString>
          <CharString index="109">
            43 37 44 65 75 hhcurveto
            return
          </CharString>
          <CharString index="110">
            10 hvcurveto
            -310 5 return
          </CharString>
          <CharString index="111">
            132 -1 70 -84 -5 -96 rrcurveto
            -181 -6 -200 -65 -151 hhcurveto
            -68 -1 -111 17 -72 39 rrcurveto
            return
          </CharString>
          <CharString index="112">
            22 205 rlineto
            -134 hlineto
            -219 -1655 rlineto
            -21 callgsubr
            85 644 rmoveto
            86 651 rlineto
            return
          </CharString>
          <CharString index="113">
            rmoveto
            -21 callgsubr
            return
          </CharString>
          <CharString index="114">
            hintmask 0000000000000000
            return
          </CharString>
          <CharString index="115">
            -66 callsubr
            hstem
            return
          </CharString>
          <CharString index="116">
            -10 -81 -2 -37 -16 vvcurveto
            return
          </CharString>
          <CharString index="117">
            386 293 141 363 -6 hvcurveto
            -3 173 -141 118 -168 19 rrcurveto
            return
          </CharString>
          <CharString index="118">
            26 251 rlineto
            -140 hlineto
            endchar
          </CharString>
          <CharString index="119">
            hstemhm
            121 return
          </CharString>
          <CharString index="120">
            -59 callgsubr
            endchar
          </CharString>
          <CharString index="121">
            rmoveto
            106 hlineto
            184 592 rlineto
            -156 hlineto
            return
          </CharString>
          <CharString index="122">
            890 hlineto
            11 127 -737 -13 78 614 479 -11 9 127 return
          </CharString>
          <CharString index="123">
            266 -15 115 -78 -21 732 100 602 112 -16 -20 hstemhm
            return
          </CharString>
          <CharString index="124">
            671 0 120 339 116 147 118 573 116 return
          </CharString>
          <CharString index="125">
            39 -16 116 -79 -21 1047 109 return
          </CharString>
          <CharString index="126">
            3 -43 callsubr
            hintmask 00000000
            return
          </CharString>
          <CharString index="127">
            -256 -186 1966 hstem
            375 131 vstem
            375 return
          </CharString>
          <CharString index="128">
            hlineto
            -14 -121 rlineto
            225 hlineto
            161 5 -28 -181 rlineto
            return
          </CharString>
          <CharString index="129">
            197 122 130 79 42 vhcurveto
            return
          </CharString>
          <CharString index="130">
            -20 hstemhm
            1142 156 return
          </CharString>
          <CharString index="131">
            -21 1414 115 return
          </CharString>
          <CharString index="132">
            hstemhm
            149 1718 return
          </CharString>
          <CharString index="133">
            688 -123 203 return
          </CharString>
          <CharString index="134">
            203 218 203 return
          </CharString>
          <CharString index="135">
            hstemhm
            112 153 return
          </CharString>
          <CharString index="136">
            -8 30 180 26 230 rlineto
            -136 hlineto
            -27 -230 return
          </CharString>
          <CharString index="137">
            153 hlineto
            243 1037 77 394 50 -386 rlineto
            return
          </CharString>
          <CharString index="138">
            0 116 -116 123 1304 119 hstemhm
            return
          </CharString>
          <CharString index="139">
            -332 21 -21 998 158 return
          </CharString>
          <CharString index="140">
            107 396 109 return
          </CharString>
          <CharString index="141">
            12 callsubr
            949 return
          </CharString>
          <CharString index="142">
            vstem
            572 295 rmoveto
            138 hlineto
            29 241 return
          </CharString>
          <CharString index="143">
            -55 hhcurveto
            -51 -37 28 52 return
          </CharString>
          <CharString index="144">
            -53 21 -21 719 120 574 116 return
          </CharString>
          <CharString index="145">
            -90 137 116 86 55 39 45 vhcurveto
            -40 return
          </CharString>
          <CharString index="146">
            -55 callgsubr
            -43 return
          </CharString>
          <CharString index="147">
            -106 -119 -83 -83 -42 hvcurveto
            return
          </CharString>
          <CharString index="148">
            hintmask 00000000
            hintmask 10100000
            return
          </CharString>
          <CharString index="149">
            hstemhm
            173 143 return
          </CharString>
          <CharString index="150">
            112 -16 23 callsubr
            return
          </CharString>
          <CharString index="151">
            -36 40 -59 hhcurveto
            return
          </CharString>
          <CharString index="152">
            rmoveto
            7 callgsubr
            return
          </CharString>
        <CharString name=".notdef">
          735 0 231 -210 -21 hstemhm
          220 241 925 239 hintmask 00000000
          hintmask 01110000
          220 hmoveto
          1405 1416 -1405 hlineto
          242 -1046 rmoveto
          350 335 -351 356 116 119 346 -363 342 362 121 -119 -355 -351 355 -362 rlineto
          hintmask 10110000
          -115 -116 -351 364 -337 -363 rlineto
          endchar
        </CharString>
        <CharString name="A">
          -59 callsubr
          -3 callgsubr
          hintmask 00000000
          hintmask 11011000
          -96 callgsubr
          hintmask 11101000
          -56 callsubr
          endchar
        </CharString>
        <CharString name="AE">
          17 callsubr
          -107 107 -85 85 hstemhm
          -107 1824 hintmask 00000000
          hintmask 11110010
          55 hmoveto
          -30 callgsubr
          hintmask 11100110
          -11 callgsubr
        </CharString>
        <CharString name="AEacute">
          17 callsubr
          -85 85 146 -21 hstemhm
          -107 1824 -706 373 hintmask 00000101
          1068 -64 callsubr
          hintmask 00000000
          -956 -1654 rmoveto
          -30 callgsubr
          hintmask 11110010
          -11 callgsubr
        </CharString>
        <CharString name="Aacute">
          -59 callsubr
          165 -21 -3 callgsubr
          -411 373 hintmask 00000000
          hintmask 11010100
          -96 callgsubr
          hintmask 11100100
          -56 callsubr
          hintmask 00001010
          -108 1057 -93 callgsubr
          endchar
        </CharString>
        <CharString name="Abreve">
          -59 callsubr
          127 112 -3 callgsubr
          -646 104 hintmask 00000000
          hintmask 11010100
          -96 callgsubr
          hintmask 11100100
          -56 callsubr
          hintmask 00001010
          -104 1091 -104 callgsubr
          endchar
        </CharString>
        <CharString name="Acircumflex">
          -68 callsubr
        </CharString>
        <CharString name="Adieresis">
          -59 callsubr
          211 214 -3 callgsubr
          -649 2 callgsubr
          hintmask 00000000
          hintmask 11010100
          -96 callgsubr
          hintmask 11100100
          -56 callsubr
          hintmask 00001011
          102 1175 -63 callsubr
        </CharString>
        <CharString name="Agrave">
          -59 callsubr
          162 -21 -3 callgsubr
          -642 367 hintmask 00000000
          hintmask 11010100
          -96 callgsubr
          hintmask 11100100
          -56 callsubr
          hintmask 00001010
          -85 1055 -20 callsubr
        </CharString>
        <CharString name="Amacron">
          -59 callsubr
          238 114 -3 callgsubr
          -626 514 hintmask 00000000
          hintmask 11010100
          -96 callgsubr
          hintmask 11100100
          -56 callsubr
          hintmask 00001010
          -380 1202 -68 callgsubr
          endchar
        </CharString>
        <CharString name="Aogonek">
          155 -436 114 343 -21 22 -21 430 115 849 135 0 -20 hstemhm
          695 195 -148 20 hintmask 00000000
          hintmask 11010101
          -50 hmoveto
          161 hlineto
          201 431 rlineto
          614 hlineto
          hintmask 10110101
          76 -430 rlineto
          -89 -49 -171 -99 -140 vvcurveto
          -58 51 -91 137 116 85 56 38 45 vhcurveto
          -40 78 rlineto
          hintmask 11010110
          -38 -49 -54 -20 23 callgsubr
          154 96 80 52 hvcurveto
          28 hlineto
          hintmask 10110101
          -289 -50 callgsubr
          rlineto
          hintmask 10110110
          -168 hlineto
          -329 -984 rmoveto
          hintmask 10111001
          341 730 -56 callsubr
          endchar
        </CharString>
        <CharString name="Aring">
          155 21 -21 431 115 849 135 -47 82 -35 -20 406 84 -3 callgsubr
          -654 33 callsubr
          7 callsubr
          hintmask 1100101000000000
          -96 callgsubr
          hintmask 1110001000000000
          -56 callsubr
          hintmask 0001010110000000
          -129 937 -62 callgsubr
        </CharString>
        <CharString name="Atilde">
          -59 callsubr
          183 28 callgsubr
          -50 1202 -717 764 hintmask 00000000
          hintmask 11010010
          -96 callgsubr
          hintmask 11100010
          -56 callsubr
          hintmask 00000000
          -404 1187 rmoveto
          hintmask 00001001
          1 callsubr
          hintmask 00001101
          -80 callgsubr
          hintmask 00001001
          12 callgsubr
        </CharString>
        <CharString name="B">
          20 callgsubr
          hstemhm
          971 160 -143 151 hintmask 00000000
          hintmask 01110100
          -1 callgsubr
          70 hlineto
          71 119 -14 77 hhcurveto
          hintmask 10110100
          10 callsubr
          hintmask 10110010
          13 callgsubr
          hintmask 10101100
          35 callgsubr
          hintmask 10110010
          -6 callsubr
          hintmask 10101100
          -72 -91 -3 3 -71 hvcurveto
          hintmask 10110100
          -24 callgsubr
        </CharString>
        <CharString name="C">
          -8 callgsubr
          hstem
          110 154 vstem
          622 -15 -95 callgsubr
          endchar
        </CharString>
        <CharString name="CR">
          -1110 endchar
        </CharString>
        <CharString name="Cacute">
          -8 callgsubr
          129 -21 hstemhm
          110 154 495 373 hintmask 11010000
          622 -15 -95 callgsubr
          hintmask 00101000
          194 1618 -93 callgsubr
          endchar
        </CharString>
        <CharString name="Ccaron">
          -8 callgsubr
          68 386 hstemhm
          110 154 230 695 hintmask 11010000
          622 -15 -95 callgsubr
          hintmask 00101000
          110 1629 -90 callsubr
          endchar
        </CharString>
        <CharString name="Ccedilla">
          31 -463 126 325 117 1315 126 hstem
          110 154 328 131 vstem
          334 -319 rmoveto
          -56 callgsubr
          70 -11 55 -17 42 hvcurveto
          188 11 105 53 50 31 -23 128 rcurveline
          -39 -55 -146 -67 -165 hhcurveto
          -270 -110 249 288 -5 hvcurveto
          349 -7 169 429 392 hhcurveto
          161 73 -44 -18 42 hvcurveto
          53 126 -51 16 rlineto
          22 -67 -76 24 -129 hhcurveto
          -408 -316 -371 -548 10 hvcurveto
          5 -300 117 -320 352 -21 rrcurveto
          6 -38 2 -50 -42 -34 callsubr
          endchar
        </CharString>
        <CharString name="Ccircumflex">
          -8 callgsubr
          127 -7 callsubr
          110 154 216 681 hintmask 11001000
          622 -15 -95 callgsubr
          hintmask 00000000
          -83 1609 -67 callsubr
        </CharString>
        <CharString name="Cdotaccent">
          -8 callgsubr
          161 213 hstemhm
          110 154 467 201 hintmask 00101000
          815 1707 -97 callsubr
          hintmask 11010000
          -193 -1722 -95 callgsubr
          endchar
        </CharString>
        <CharString name="D">
          0 callgsubr
          hstemhm
          1142 156 hintmask 00000000
          hintmask 01101000
          -1 callgsubr
          -36 callgsubr
          hintmask 10101000
          -85 callgsubr
          hintmask 10011000
          -58 callgsubr
          hintmask 10101000
          -90 callgsubr
          hintmask 10011000
          -33 callsubr
          endchar
        </CharString>
        <CharString name="Dcaron">
          0 callgsubr
          104 386 hstemhm
          455 695 -8 156 hintmask 00001100
          693 -65 callsubr
          hintmask 00000000
          -334 -1933 rmoveto
          -36 callgsubr
          hintmask 01100010
          -85 callgsubr
          hintmask 10100010
          -58 callgsubr
          hintmask 10010010
          -90 callgsubr
          hintmask 10100010
          -33 callsubr
          endchar
        </CharString>
        <CharString name="Dcroat">
          16 callsubr
          53 751 338 156 hintmask 00100100
          53 29 callgsubr
          56 -832 rmoveto
          -36 callgsubr
          hintmask 01010010
          -85 callgsubr
          hintmask 10010010
          -58 callgsubr
          hintmask 10001010
          -90 callgsubr
          hintmask 10010010
          -33 callsubr
          endchar
        </CharString>
        <CharString name="Delta">
          -31 callgsubr
        </CharString>
        <CharString name="E">
          -51 callgsubr
          hstem
          121 949 vstem
          -1 callgsubr
          -91 callgsubr
          endchar
        </CharString>
        <CharString name="Eacute">
          -51 callgsubr
          146 -21 34 callsubr
          -411 373 hintmask 00010100
          716 -64 callsubr
          hintmask 11101000
          -538 -1654 rmoveto
          -91 callgsubr
          endchar
        </CharString>
        <CharString name="Ebreve">
          -51 callgsubr
          108 112 34 callsubr
          -646 104 hintmask 00010100
          720 -81 callgsubr
          hintmask 11101000
          -599 -1637 rmoveto
          -91 callgsubr
          endchar
        </CharString>
        <CharString name="Ecaron">
          -51 callgsubr
          85 386 34 callsubr
          -677 695 hintmask 00010100
          631 -65 callsubr
          hintmask 11101000
          -272 -1933 rmoveto
          -91 callgsubr
          endchar
        </CharString>
        <CharString name="Ecircumflex">
          -51 callgsubr
          144 -21 22 -21 34 callsubr
          -690 681 hintmask 11100100
          -1 callgsubr
          -91 callgsubr
          hintmask 00000000
          125 64 -54 callgsubr
        </CharString>
        <CharString name="Edieresis">
          -51 callgsubr
          192 214 34 callsubr
          -650 2 callgsubr
          hintmask 00010110
          925 1721 -98 callsubr
          hintmask 11101000
          -384 -1721 rmoveto
          -91 callgsubr
          endchar
        </CharString>
        <CharString name="Edotaccent">
          -51 callgsubr
          178 213 34 callsubr
          -440 201 hintmask 00010100
          714 1707 -97 callsubr
          hintmask 11101000
          -593 -1707 rmoveto
          -91 callgsubr
          endchar
        </CharString>
        <CharString name="Egrave">
          -51 callgsubr
          143 -21 34 callsubr
          -642 367 hintmask 00010100
          739 1601 -66 callgsubr
          hintmask 11101000
          -618 -1601 rmoveto
          -91 callgsubr
          endchar
        </CharString>
        <CharString name="Emacron">
          -51 callgsubr
          219 114 34 callsubr
          -627 514 hintmask 00010100
          443 -1 callsubr
          hintmask 11101000
          -326 -1862 rmoveto
          -91 callgsubr
          endchar
        </CharString>
        <CharString name="Eng">
          378 8 callsubr
          121 1212 vstem
          -1 callgsubr
          141 hlineto
          134 1073 29 288 72 -239 489 -1111 -45 -114 -114 -100 -154 -44 rlinecurve
          28 -68 197 35 171 87 68 193 rlinecurve
          3 hlineto
          193 -50 callgsubr
          rlineto
          -143 hlineto
          -134 -1096 -21 -238 -72 207 -491 1127 rlineto
          -158 hlineto
          endchar
        </CharString>
        <CharString name="Eogonek">
          28 -436 114 322 120 602 118 573 116 hstem
          450 258 247 112 vstem
          -1 callgsubr
          702 hlineto
          -90 -50 -173 -99 -138 vvcurveto
          -58 51 -91 137 116 86 56 38 44 vhcurveto
          -39 78 rlineto
          -38 -49 -55 -20 23 callgsubr
          160 96 79 52 hvcurveto
          64 -92 callgsubr
          endchar
        </CharString>
        <CharString name="Eth">
          16 callsubr
          52 751 339 156 hintmask 00100100
          52 29 callgsubr
          57 -832 rmoveto
          -36 callgsubr
          hintmask 01010010
          -85 callgsubr
          hintmask 10010010
          -58 callgsubr
          hintmask 10001010
          -90 callgsubr
          hintmask 10010010
          -33 callsubr
          endchar
        </CharString>
        <CharString name="Euro">
          271 -16 113 465 108 247 108 407 114 hstem
          234 160 vstem
          26 562 rmoveto
          211 hlineto
          -289 22 135 -289 311 hhcurveto
          201 173 55 72 63 hvcurveto
          -43 104 rlineto
          -61 -84 -115 -57 -173 hhcurveto
          -221 -97 195 270 -14 hvcurveto
          569 hlineto
          15 108 rlineto
          -585 hlineto
          2 87 8 83 15 77 rrcurveto
          594 hlineto
          15 108 rlineto
          -583 hlineto
          248 74 151 159 224 hhcurveto
          160 105 -35 -26 36 hvcurveto
          49 121 rlineto
          23 -71 -90 31 -148 hhcurveto
          -296 -245 -197 -324 -105 hvcurveto
          -198 hlineto
          -16 -108 rlineto
          186 hlineto
          -17 -77 -9 -83 -1 -87 rrcurveto
          -192 hlineto
          endchar
        </CharString>
        <CharString name="F">
          37 callsubr
          hstem
          121 972 vstem
          36 callgsubr
          92 725 -24 callsubr
          endchar
        </CharString>
        <CharString name="G">
          -49 callgsubr
          hstem
          112 153 vstem
          616 -17 -86 callgsubr
        </CharString>
        <CharString name="Gbreve">
          -49 callgsubr
          91 112 28 callsubr
          291 104 hintmask 00010100
          852 -81 callgsubr
          hintmask 11101000
          -236 -1654 -86 callgsubr
        </CharString>
        <CharString name="Gcaron">
          -49 callgsubr
          68 386 28 callsubr
          260 695 hintmask 11101000
          616 -17 -107 callsubr
          hintmask 00010100
          147 1631 -90 callsubr
          endchar
        </CharString>
        <CharString name="Gcircumflex">
          -49 callgsubr
          127 -21 22 -21 28 callsubr
          247 681 hintmask 11100100
          616 -17 -107 callsubr
          hintmask 00000000
          -45 1611 -54 callgsubr
        </CharString>
        <CharString name="Gcommaaccent">
          230 -539 -21 543 118 506 121 696 122 28 callsubr
          346 145 hintmask 10000100
          543 -143 -100 callgsubr
          hintmask 01111000
          -21 35 -86 callgsubr
        </CharString>
        <CharString name="Gdotaccent">
          -49 callgsubr
          161 213 28 callsubr
          497 201 hintmask 00010100
          846 1707 -97 callsubr
          hintmask 11101000
          -230 -1724 -86 callgsubr
        </CharString>
        <CharString name="Gtilde">
          -49 callgsubr
          147 28 callgsubr
          112 153 219 764 hintmask 11100100
          616 -17 -107 callsubr
          hintmask 00000000
          -65 1750 rmoveto
          hintmask 00010010
          1 callsubr
          hintmask 00011010
          -80 callgsubr
          hintmask 00010010
          12 callgsubr
        </CharString>
        <CharString name="H">
          38 callgsubr
          hstem
          121 1219 vstem
          -25 callgsubr
          endchar
        </CharString>
        <CharString name="Hbar">
          300 21 -21 610 115 311 115 379 -20 hstem
          56 1460 vstem
          36 callgsubr
          77 610 rlineto
          726 hlineto
          -77 -610 rlineto
          151 hlineto
          130 1036 rlineto
          227 hlineto
          11 115 rlineto
          -224 hlineto
          48 379 -26 callsubr
          -48 -379 rlineto
          -726 hlineto
          48 379 -26 callsubr
          -48 -379 rlineto
          -199 hlineto
          -11 -115 rlineto
          195 hlineto
          111 -311 rmoveto
          39 311 rlineto
          726 hlineto
          -39 -311 rlineto
          endchar
        </CharString>
        <CharString name="Hcircumflex">
          38 callgsubr
          163 -7 callsubr
          121 1219 -838 681 hintmask 11100100
          -25 callgsubr
          hintmask 00000000
          247 64 -54 callgsubr
        </CharString>
        <CharString name="I">
          -538 8 callsubr
          145 344 vstem
          -73 callgsubr
          endchar
        </CharString>
        <CharString name="I.uc">
          -538 -66 callsubr
          197 213 34 callgsubr
          -118 201 hintmask 11010000
          -73 callgsubr
          hintmask 00101000
          117 177 -45 callsubr
        </CharString>
        <CharString name="IJ">
          46 -66 callsubr
          34 callgsubr
          -86 670 hintmask 11100000
          -73 callgsubr
          hintmask 01010000
          398 -1445 -79 callgsubr
          endchar
        </CharString>
        <CharString name="IJ_acutecomb">
          46 -66 callsubr
          161 -21 25 -21 hstemhm
          145 928 -129 373 hintmask 11011000
          434 -64 callsubr
          26 -1909 rmoveto
          28 -68 201 35 168 89 82 274 rlinecurve
          29 95 90 689 72 671 rrcurveto
          -151 hlineto
          -50 -435 -55 -623 -81 -387 -29 -135 -110 -152 -194 -53 rrcurveto
          -258 255 rmoveto
          151 hlineto
          193 -50 callgsubr
          rlineto
          -151 hlineto
          hintmask 00100100
          663 69 -93 callgsubr
          endchar
        </CharString>
        <CharString name="Iacute">
          -538 -66 callsubr
          165 -21 34 callgsubr
          -112 373 hintmask 11010000
          -73 callgsubr
          hintmask 00101000
          96 73 -93 callgsubr
          endchar
        </CharString>
        <CharString name="Ibreve">
          -538 -66 callsubr
          127 112 hstemhm
          142 104 -101 344 hintmask 11001000
          -73 callgsubr
          hintmask 00110000
          100 107 -104 callgsubr
          endchar
        </CharString>
        <CharString name="Icircumflex">
          -538 -66 callsubr
          163 -7 callsubr
          98 681 -634 344 hintmask 11000100
          -73 callgsubr
          hintmask 00000000
          -181 64 rmoveto
          330 270 rlineto
          hintmask 00011000
          -77 callgsubr
          hintmask 00101000
          -340 -347 rlineto
          endchar
        </CharString>
        <CharString name="Idieresis">
          -538 -66 callsubr
          211 214 hstemhm
          139 202 -196 344 69 203 hintmask 11001000
          -73 callgsubr
          hintmask 00110100
          306 191 -63 callsubr
        </CharString>
        <CharString name="Idotaccent">
          -538 -66 callsubr
          197 213 34 callgsubr
          -140 201 hintmask 11010000
          -73 callgsubr
          hintmask 00101000
          95 177 -45 callsubr
        </CharString>
        <CharString name="Igrave">
          -538 -66 callsubr
          162 -21 34 callgsubr
          -343 367 hintmask 11010000
          -73 callgsubr
          hintmask 00101000
          119 71 -20 callsubr
        </CharString>
        <CharString name="Imacron">
          -538 -66 callsubr
          238 114 34 callgsubr
          -328 514 hintmask 11010000
          -73 callgsubr
          hintmask 00101000
          -177 218 -68 callgsubr
          endchar
        </CharString>
        <CharString name="Iogonek">
          -538 -436 114 343 -53 callsubr
          hstem
          -122 148 vstem
          145 2 rmoveto
          -89 -49 -178 -100 -140 vvcurveto
          -58 50 -91 137 116 86 56 38 45 vhcurveto
          -40 78 rlineto
          -38 -49 -54 -20 23 callgsubr
          159 96 80 52 hvcurveto
          31 hlineto
          193 -50 callgsubr
          rlineto
          -151 hlineto
          endchar
        </CharString>
        <CharString name="Itilde">
          -538 -66 callsubr
          183 28 callgsubr
          71 764 -690 344 hintmask 11000100
          -73 callgsubr
          hintmask 00000000
          -200 203 rmoveto
          hintmask 00101000
          1 callsubr
          hintmask 00111000
          -80 callgsubr
          hintmask 00101000
          12 callgsubr
        </CharString>
        <CharString name="J">
          -526 -38 callgsubr
          hstem
          -169 670 vstem
          164 85 -79 callgsubr
          endchar
        </CharString>
        <CharString name="Jcircumflex">
          -526 -38 callgsubr
          163 -7 callsubr
          -169 670 -393 681 hintmask 10010000
          164 85 -79 callgsubr
          hintmask 00000000
          3 1509 rmoveto
          330 270 rlineto
          hintmask 00101000
          -77 callgsubr
          hintmask 01001000
          -340 -347 rlineto
          endchar
        </CharString>
        <CharString name="K">
          135 8 callsubr
          121 1162 vstem
          121 hmoveto
          -44 callsubr
        </CharString>
        <CharString name="Kcommaaccent">
          135 -537 -21 579 -53 callsubr
          12 callsubr
          1162 -687 145 hintmask 10001000
          528 -22 callgsubr
          -501 50 rmoveto
          -44 callsubr
        </CharString>
        <CharString name="L">
          -132 0 26 callgsubr
          hstem
          121 759 vstem
          -1 callgsubr
          13 callsubr
        </CharString>
        <CharString name="Lacute">
          -132 0 26 callgsubr
          167 -21 12 callsubr
          759 -498 373 hintmask 00101000
          439 1605 -93 callgsubr
          hintmask 11010000
          -261 -1656 11 callgsubr
        </CharString>
        <CharString name="Lcaron">
          -132 0 128 847 642 -87 -20 12 callsubr
          759 -16 139 hintmask 10110000
          -1 callgsubr
          -59 callgsubr
          hintmask 01001000
          561 -555 -76 callgsubr
        </CharString>
        <CharString name="Lcommaaccent">
          -132 -537 -21 558 26 callgsubr
          12 callsubr
          759 -385 145 hintmask 10001000
          427 -22 callgsubr
          -400 50 11 callgsubr
        </CharString>
        <CharString name="Ldot">
          -44 0 128 644 3 callgsubr
          758 -20 12 callsubr
          759 -84 210 hintmask 10011000
          -1 callgsubr
          -59 callgsubr
          hintmask 00000000
          482 -666 -49 callsubr
          hintmask 00100100
          -7 callgsubr
          hintmask 01000100
          -14 callsubr
        </CharString>
        <CharString name="Lslash">
          -132 1 26 callgsubr
          hstem
          -29 909 vstem
          121 1 rmoveto
          743 hlineto
          16 130 -593 -4 67 533 469 199 -27 98 -428 -185 96 759 -26 callsubr
          -105 -827 -238 -103 28 -91 196 83 rlineto
          endchar
        </CharString>
        <CharString name="M">
          44 callgsubr
          hstemhm
          72 1548 -136 114 hintmask 00000000
          hintmask 01110000
          72 hmoveto
          30 callsubr
          hintmask 10110000
          39 callgsubr
          hintmask 01101000
          -25 callsubr
        </CharString>
        <CharString name="N">
          16 callgsubr
          hstem
          121 1212 vstem
          -60 callsubr
          endchar
        </CharString>
        <CharString name="NULL">
          -1110 endchar
        </CharString>
        <CharString name="Nacute">
          16 callgsubr
          165 -21 12 callsubr
          1212 -528 373 hintmask 00101000
          862 -64 callsubr
          hintmask 11010000
          -684 -1654 rmoveto
          -96 callsubr
          endchar
        </CharString>
        <CharString name="Ncaron">
          16 callgsubr
          104 386 12 callsubr
          1212 -794 695 hintmask 00101000
          777 -65 callsubr
          hintmask 11010000
          -418 -1933 rmoveto
          -96 callsubr
          endchar
        </CharString>
        <CharString name="Ncommaaccent">
          292 -539 -21 581 -53 callsubr
          12 callsubr
          1212 -736 145 hintmask 10001000
          529 -143 -20 callgsubr
          -502 52 rmoveto
          -96 callsubr
          endchar
        </CharString>
        <CharString name="Ntilde">
          16 callgsubr
          183 28 callgsubr
          121 1212 -835 764 hintmask 00000000
          hintmask 00100100
          565 1733 rmoveto
          hintmask 00110100
          1 callsubr
          hintmask 00100100
          -80 callgsubr
          hintmask 00110100
          40 callsubr
          hintmask 11001000
          -377 -1798 rmoveto
          -96 callsubr
          endchar
        </CharString>
        <CharString name="O">
          -17 -35 callsubr
          hstem
          112 157 874 157 vstem
          -80 callsubr
          endchar
        </CharString>
        <CharString name="OE">
          1015 -17 116 -99 120 602 118 573 116 -102 120 -13 callsubr
          hintmask 00000000
          hintmask 10110100
          610 -17 rmoveto
          230 187 125 201 121 hvcurveto
          hintmask 01110100
          -39 -309 rlineto
          -91 callgsubr
          -44 -349 rlineto
          hintmask 01101100
          215 -62 -142 151 -236 hhcurveto
          -407 -309 -403 -531 10 hvcurveto
          hintmask 10110100
          -358 7 171 -272 320 hhcurveto
          24 116 rmoveto
          -233 -127 178 366 -5 hvcurveto
          hintmask 01101100
          418 -6 222 366 309 hhcurveto
          240 114 -187 -352 6 hvcurveto
          hintmask 10110100
          -429 7 -216 -360 -311 hhcurveto
          endchar
        </CharString>
        <CharString name="Oacute">
          -17 -35 callsubr
          128 -21 -13 callsubr
          512 373 -11 157 hintmask 00101000
          838 -64 callsubr
          hintmask 11010100
          -176 -1671 -105 callgsubr
          endchar
        </CharString>
        <CharString name="Obreve">
          -17 -35 callsubr
          90 112 -13 callsubr
          276 104 494 157 hintmask 00101000
          841 -81 callgsubr
          hintmask 11010100
          -236 -1654 -105 callgsubr
          endchar
        </CharString>
        <CharString name="Ocircumflex">
          -17 -35 callsubr
          126 -21 22 -21 -13 callsubr
          233 681 -40 157 hintmask 11001010
          -80 callsubr
          hintmask 00000000
          -68 1495 -67 callsubr
        </CharString>
        <CharString name="Odieresis">
          -17 -35 callsubr
          174 214 -13 callsubr
          273 2 callgsubr
          -21 157 hintmask 00101100
          1047 1721 -98 callsubr
          hintmask 11010010
          -22 -1738 -105 callgsubr
          endchar
        </CharString>
        <CharString name="Ograve">
          -17 -35 callsubr
          125 -21 -13 callsubr
          281 367 226 157 hintmask 00101000
          861 1601 -66 callgsubr
          hintmask 11010100
          -256 -1618 -105 callgsubr
          endchar
        </CharString>
        <CharString name="Ohungarumlaut">
          -17 -35 callsubr
          22 427 -13 callsubr
          289 828 -243 157 hintmask 11010100
          -80 callsubr
          hintmask 00101000
          399 1472 -50 callsubr
        </CharString>
        <CharString name="Omacron">
          -17 -35 callsubr
          201 114 -13 callsubr
          296 514 64 157 hintmask 00101000
          565 -1 callsubr
          hintmask 11010100
          36 -1879 -105 callgsubr
          endchar
        </CharString>
        <CharString name="Omega">
          549 31 callsubr
          152 43 callgsubr
          72 -62 callsubr
        </CharString>
        <CharString name="Oslash">
          -16 -35 callsubr
          hstem
          112 157 874 157 vstem
          -72 callgsubr
          endchar
        </CharString>
        <CharString name="Oslashacute">
          -16 -35 callsubr
          127 -21 -13 callsubr
          472 373 29 157 hintmask 11010100
          -72 callgsubr
          hintmask 00101000
          426 1377 -93 callgsubr
          endchar
        </CharString>
        <CharString name="Otilde">
          -17 -35 callsubr
          146 28 callgsubr
          112 157 205 764 -95 157 hintmask 00000000
          hintmask 00100100
          541 1733 rmoveto
          hintmask 00110100
          1 callsubr
          hintmask 00100100
          -80 callgsubr
          hintmask 00110100
          40 callsubr
          hintmask 11001010
          131 -1815 -105 callgsubr
          endchar
        </CharString>
        <CharString name="P">
          32 callgsubr
          hstemhm
          1014 152 hintmask 00000000
          hintmask 11101000
          121 hmoveto
          -15 callsubr
          hintmask 11011000
          31 callgsubr
          hintmask 11101000
          -10 callgsubr
          hintmask 11011000
          -63 -1 -98 10 -41 8 rrcurveto
          endchar
        </CharString>
        <CharString name="Q">
          -359 139 209 110 -94 -21 26 -21 1438 120 -13 callsubr
          306 111 457 157 hintmask 00000000
          hintmask 10101111
          578 -16 rmoveto
          -232 -28 174 -111 188 hhcurveto
          112 139 21 36 54 hvcurveto
          117 vlineto
          -24 -61 -96 -11 -61 hhcurveto
          hintmask 10011111
          -148 -164 30 179 -1 hvcurveto
          370 50 252 391 -8 486 rrcurveto
          346 -6 -160 285 -321 hhcurveto
          -404 -307 -403 -531 10 hvcurveto
          hintmask 10101111
          7 -348 159 -266 300 -15 rrcurveto
          hintmask 11001111
          51 115 rmoveto
          -227 -128 178 366 -5 hvcurveto
          418 -6 220 366 306 hhcurveto
          234 114 -187 -352 6 hvcurveto
          -429 8 -215 -360 -307 hhcurveto
          endchar
        </CharString>
        <CharString name="R">
          146 20 -17 callgsubr
          hstemhm
          1006 163 hintmask 00000000
          hintmask 01110100
          120 hmoveto
          -40 callgsubr
          hintmask 10110100
          -71 callsubr
          hintmask 01101100
          -17 callsubr
          hintmask 01110100
          -54 callsubr
          hintmask 01101100
          24 callgsubr
          endchar
        </CharString>
        <CharString name="Racute">
          146 20 -17 callgsubr
          165 -21 hstemhm
          706 373 -73 163 hintmask 00000000
          hintmask 01110001
          120 hmoveto
          -40 callgsubr
          hintmask 10110001
          -71 callsubr
          hintmask 01101001
          -17 callsubr
          hintmask 01110001
          -54 callsubr
          hintmask 01101001
          24 callgsubr
          hintmask 00000110
          395 824 -93 callgsubr
          endchar
        </CharString>
        <CharString name="Rcaron">
          146 20 -17 callgsubr
          104 386 hstemhm
          440 695 -129 163 hintmask 00000110
          678 -65 callsubr
          hintmask 00000000
          -320 -1933 rmoveto
          -40 callgsubr
          hintmask 01110001
          -71 callsubr
          hintmask 10110001
          -17 callsubr
          hintmask 01101001
          -54 callsubr
          hintmask 01110001
          24 callgsubr
          endchar
        </CharString>
        <CharString name="Rcommaaccent">
          146 -539 -21 580 -17 callgsubr
          hstemhm
          579 145 282 163 hintmask 10000010
          511 -143 -100 callgsubr
          hintmask 00000000
          -485 52 rmoveto
          -40 callgsubr
          hintmask 00111001
          -71 callsubr
          hintmask 01011001
          -17 callsubr
          hintmask 00110101
          -54 callsubr
          hintmask 00111001
          24 callgsubr
          endchar
        </CharString>
        <CharString name="S">
          -9 callsubr
          hstem
          187 151 427 157 vstem
          29 73 -65 callgsubr
        </CharString>
        <CharString name="Sacute">
          -9 callsubr
          128 -21 hstemhm
          187 151 291 373 -237 157 hintmask 11010100
          29 73 -103 callsubr
          hintmask 00101000
          615 1407 -93 callgsubr
          endchar
        </CharString>
        <CharString name="Scaron">
          -9 callsubr
          67 386 hstemhm
          187 151 26 695 -294 157 hintmask 11010100
          29 73 -103 callsubr
          hintmask 00101000
          531 1418 -90 callsubr
          endchar
        </CharString>
        <CharString name="Scircumflex">
          -9 callsubr
          126 -7 callsubr
          187 151 12 681 -266 157 hintmask 11001010
          29 73 -103 callsubr
          hintmask 00000000
          338 1398 -67 callsubr
        </CharString>
        <CharString name="T">
          12 21 24 callsubr
          hstem
          138 1061 vstem
          410 hmoveto
          150 -52 callsubr
          rlineto
          endchar
        </CharString>
        <CharString name="Tbar">
          12 21 -21 733 100 581 115 hstem
          138 1061 vstem
          410 hmoveto
          5 callgsubr
          92 733 rlineto
          309 hlineto
          13 100 rlineto
          -309 hlineto
          74 586 443 -9 17 120 rlineto
          -1044 hlineto
          -17 -120 451 9 -74 -586 rlineto
          -283 hlineto
          -13 -100 rlineto
          283 hlineto
          endchar
        </CharString>
        <CharString name="Tcaron">
          12 21 24 callsubr
          85 386 hstemhm
          138 1061 -789 695 hintmask 00101000
          648 -65 callsubr
          hintmask 11010000
          -1933 vmoveto
          150 -52 callsubr
          rlineto
          endchar
        </CharString>
        <CharString name="Thorn">
          85 21 -21 286 118 763 114 249 -20 hstem
          974 152 vstem
          36 callgsubr
          37 297 rlineto
          -4 30 65 -7 107 hhcurveto
          367 254 230 371 -5 hvcurveto
          260 -3 -155 134 -292 hhcurveto
          -82 -90 -10 -5 -73 hvcurveto
          33 264 -26 callsubr
          10 -1111 rmoveto
          92 728 rlineto
          9 55 130 11 51 hhcurveto
          231 93 -114 -179 -2 hvcurveto
          -4 -296 -154 -171 -301 -3 rrcurveto
          -72 -80 8 7 -39 hvcurveto
          endchar
        </CharString>
        <CharString name="U">
          -40 callsubr
          hstem
          154 154 vstem
          -89 callsubr
          endchar
        </CharString>
        <CharString name="Uacute">
          -40 callsubr
          165 -21 -12 callgsubr
          454 373 hintmask 00101000
          819 -64 callsubr
          hintmask 11010000
          -608 -1232 -106 callsubr
          endchar
        </CharString>
        <CharString name="Ubreve">
          -40 callsubr
          127 112 -12 callgsubr
          218 104 hintmask 00101000
          822 -81 callgsubr
          hintmask 11010000
          -668 -1215 -106 callsubr
          endchar
        </CharString>
        <CharString name="Ucircumflex">
          -40 callsubr
          163 -21 22 -21 -12 callgsubr
          175 681 hintmask 11001000
          -89 callsubr
          hintmask 00000000
          388 1172 -67 callsubr
        </CharString>
        <CharString name="Udieresis">
          -40 callsubr
          211 214 -12 callgsubr
          215 2 callgsubr
          hintmask 00101100
          1028 1721 -98 callsubr
          hintmask 11010000
          -454 -1299 -106 callsubr
          endchar
        </CharString>
        <CharString name="Ugrave">
          -40 callsubr
          162 -21 -12 callgsubr
          223 367 hintmask 00101000
          842 1601 -66 callgsubr
          hintmask 11010000
          -688 -1179 -106 callsubr
          endchar
        </CharString>
        <CharString name="Uhungarumlaut">
          -40 callsubr
          59 427 -12 callgsubr
          231 828 hintmask 11010000
          -89 callsubr
          hintmask 00101000
          855 1149 -50 callsubr
        </CharString>
        <CharString name="Umacron">
          -40 callsubr
          238 114 -12 callgsubr
          238 514 hintmask 00101000
          546 -1 callsubr
          hintmask 11010000
          -396 -1440 -106 callsubr
          endchar
        </CharString>
        <CharString name="Uogonek">
          250 -435 113 305 123 1424 -20 -12 callgsubr
          -23 327 hintmask 00000000
          hintmask 11110000
          154 422 rmoveto
          -276 5 151 -163 292 hhcurveto
          38 36 3 4 35 hvcurveto
          hintmask 11101000
          -92 -55 -156 -101 -120 vvcurveto
          -59 51 -90 137 -10 callsubr
          -51 -36 28 52 64 119 110 95 83 hvcurveto
          207 69 123 185 46 358 114 903 rcurveline
          -147 hlineto
          -112 -890 rlineto
          -389 -50 -139 -145 -245 hhcurveto
          hintmask 11110000
          -210 -101 121 201 -4 hvcurveto
          -1 57 4 62 9 72 115 911 rcurveline
          hintmask 11101000
          -150 hlineto
          hintmask 11110000
          -119 -937 -7 -59 -6 -60 1 -52 rlinecurve
          endchar
        </CharString>
        <CharString name="Uring">
          250 -17 123 1377 82 -35 -20 406 84 -12 callgsubr
          210 33 callsubr
          hintmask 10101000
          -89 callsubr
          hintmask 01010110
          643 1061 -62 callgsubr
        </CharString>
        <CharString name="Utilde">
          -40 callsubr
          183 28 callgsubr
          154 154 147 764 hintmask 00000000
          hintmask 00100100
          522 1733 rmoveto
          hintmask 00110100
          1 callsubr
          hintmask 00100100
          -80 callgsubr
          hintmask 00110100
          40 callsubr
          hintmask 11001000
          -301 -1376 -106 callsubr
          endchar
        </CharString>
        <CharString name="V">
          59 16 -21 1535 -20 hstem
          154 1110 vstem
          408 -5 rmoveto
          161 1 695 1534 rlineto
          -160 hlineto
          -478 -1096 -115 -282 -39 282 -168 1096 -26 callsubr
          endchar
        </CharString>
        <CharString name="W">
          660 -10 176 -155 -21 1540 -20 25 callsubr
          hintmask 00000000
          hintmask 01110000
          380 -10 rmoveto
          155 hlineto
          340 860 84 236 18 -236 89 -860 rlineto
          154 hlineto
          647 1540 rlineto
          -152 hlineto
          -443 -1105 rlineto
          hintmask 10110000
          -99 -259 -20 268 -109 1096 rlineto
          -144 hlineto
          23 -226 -352 -879 -86 -259 -40 268 -146 1096 -26 callsubr
          endchar
        </CharString>
        <CharString name="Wacute">
          33 callgsubr
          165 -21 25 callsubr
          -873 373 hintmask 00101000
          1051 -64 callsubr
          hintmask 00000000
          -614 -1664 -74 callsubr
        </CharString>
        <CharString name="Wcircumflex">
          660 -10 176 -155 -21 1540 -20 163 -21 22 -21 25 callsubr
          -1151 681 hintmask 00000000
          hintmask 01100100
          380 -10 rmoveto
          155 hlineto
          340 860 84 236 18 -236 89 -860 rlineto
          154 hlineto
          647 1540 rlineto
          -152 hlineto
          -443 -1105 rlineto
          hintmask 10100100
          -99 -259 -20 268 -109 1096 rlineto
          -144 hlineto
          23 -226 -352 -879 -86 -259 -40 268 -146 1096 -26 callsubr
          hintmask 00000000
          626 64 -54 callgsubr
        </CharString>
        <CharString name="Wdieresis">
          33 callgsubr
          211 214 25 callsubr
          -1111 2 callgsubr
          hintmask 00101100
          1261 1721 -98 callsubr
          hintmask 00000000
          -461 -1731 -74 callsubr
        </CharString>
        <CharString name="Wgrave">
          33 callgsubr
          162 -21 25 callsubr
          -1103 367 hintmask 00101000
          1075 1601 -66 callgsubr
          hintmask 00000000
          -695 -1611 -74 callsubr
        </CharString>
        <CharString name="X">
          37 8 callsubr
          -35 1247 vstem
          -35 hmoveto
          183 hlineto
          430 656 274 -656 rlineto
          172 hlineto
          -348 758 536 772 rlineto
          -170 hlineto
          -424 -635 -255 635 rlineto
          -166 hlineto
          323 -742 rlineto
          endchar
        </CharString>
        <CharString name="Y">
          -27 8 callsubr
          105 1108 vstem
          -82 callgsubr
          endchar
        </CharString>
        <CharString name="Yacute">
          -27 -66 callsubr
          165 -21 hstemhm
          105 1108 -584 373 hintmask 11010000
          -82 callgsubr
          hintmask 00101000
          208 1018 -93 callgsubr
          endchar
        </CharString>
        <CharString name="Ycircumflex">
          -27 -66 callsubr
          163 -7 callsubr
          105 1108 -863 681 hintmask 11001000
          -82 callgsubr
          hintmask 00000000
          -69 1009 -67 callsubr
        </CharString>
        <CharString name="Ydieresis">
          -27 -66 callsubr
          211 214 hstemhm
          105 1108 -822 2 callgsubr
          hintmask 11010000
          -82 callgsubr
          hintmask 00101100
          418 1136 -63 callsubr
        </CharString>
        <CharString name="Ygrave">
          -27 -66 callsubr
          162 -21 hstemhm
          105 1108 -815 367 hintmask 11010000
          -82 callgsubr
          hintmask 00101000
          231 1016 -20 callsubr
        </CharString>
        <CharString name="Z">
          -4 callsubr
          hstemhm
          15 1167 hintmask 00000000
          hintmask 11010000
          36 hmoveto
          -39 callgsubr
          hintmask 10110000
          843 1195 rlineto
          hintmask 11010000
          -28 callgsubr
        </CharString>
        <CharString name="Zacute">
          -4 callsubr
          145 -21 hstemhm
          15 1167 -486 373 hintmask 00000000
          hintmask 11001000
          36 hmoveto
          -39 callgsubr
          hintmask 10101000
          843 1195 rlineto
          hintmask 11001000
          -60 callgsubr
          hintmask 00010100
          738 1533 -93 callgsubr
          endchar
        </CharString>
        <CharString name="Zcaron">
          -4 callsubr
          84 386 hstemhm
          15 1167 -752 695 hintmask 00010100
          668 -65 callsubr
          hintmask 00000000
          -394 -1933 -32 callsubr
        </CharString>
        <CharString name="Zdotaccent">
          -4 callsubr
          177 213 hstemhm
          15 1167 -515 201 hintmask 00010100
          751 1707 -97 callsubr
          hintmask 00000000
          -715 -1707 -32 callsubr
        </CharString>
        <CharString name="a">
          -42 callsubr
          37 callgsubr
          hintmask 00000000
          hintmask 10110000
          399 -16 rmoveto
          165 135 116 105 73 hvcurveto
          -3 vlineto
          hintmask 01110000
          -19 -202 rlineto
          131 hlineto
          157 1156 -113 -37 rlineto
          20 -63 -84 17 -67 hhcurveto
          -439 -194 -428 -313 hvcurveto
          hintmask 10110000
          -100 callsubr
          endchar
        </CharString>
        <CharString name="aacute">
          -42 callsubr
          92 455 37 callgsubr
          382 423 -99 callgsubr
          256 1148 -36 callsubr
        </CharString>
        <CharString name="abreve">
          -42 callsubr
          148 112 37 callgsubr
          181 104 -99 callgsubr
          288 1204 -104 callgsubr
          endchar
        </CharString>
        <CharString name="acircumflex">
          -42 callsubr
          118 435 37 callgsubr
          162 683 -99 callgsubr
          32 1174 -31 callsubr
        </CharString>
        <CharString name="acute">
          -551 1249 455 hstem
          58 423 vstem
          121 1249 -36 callsubr
        </CharString>
        <CharString name="acute.cap">
          -584 1675 -21 hstem
          82 373 vstem
          139 -64 callsubr
          endchar
        </CharString>
        <CharString name="adieresis">
          -42 callsubr
          37 callgsubr
          hintmask 00000000
          hintmask 10110000
          399 -16 rmoveto
          165 135 116 105 73 hvcurveto
          -3 vlineto
          hintmask 01110000
          -19 -202 rlineto
          131 hlineto
          157 1156 -113 -37 rlineto
          20 -63 -84 17 -67 hhcurveto
          -439 -194 -428 -313 hvcurveto
          hintmask 10110000
          -100 callsubr
          hintmask 00000000
          505 1309 -34 callgsubr
        </CharString>
        <CharString name="ae">
          514 -16 -53 callgsubr
          -110 110 37 callgsubr
          448 157 563 149 hintmask 00000000
          hintmask 11011110
          358 -16 -76 callsubr
          hintmask 11101110
          21 callgsubr
          hintmask 11011110
          -210 -333 -126 -225 -7 vhcurveto
          endchar
        </CharString>
        <CharString name="aeacute">
          514 -16 -53 callgsubr
          -110 110 93 455 37 callgsubr
          448 157 -21 423 161 149 hintmask 0000100100000000
          882 1249 -93 callsubr
          7 callsubr
          -461 -1320 -76 callsubr
          hintmask 1101011010000000
          21 callgsubr
          hintmask 1110011010000000
          -210 -333 -126 -225 -7 vhcurveto
          endchar
        </CharString>
        <CharString name="afii61352">
          1376 0 121 449 110 743 109 hstem
          1560 143 566 143 vstem
          1564 1058 rmoveto
          -297 -30 140 -191 259 hhcurveto
          195 246 139 339 34 hvcurveto
          297 30 -140 187 -259 hhcurveto
          -196 -246 -135 -339 -33 hvcurveto
          -1405 -1058 rmoveto
          142 hlineto
          132 1073 28 284 70 -235 496 -1122 rlineto
          146 hlineto
          194 -50 callgsubr
          rlineto
          -143 hlineto
          -131 -1061 -25 -267 -86 235 -475 1093 rlineto
          -157 hlineto
          1357 -465 rmoveto
          25 258 137 99 155 1 176 2 89 -154 -24 -231 -25 -253 -130 -106 -162 -1 -176 -2 -89 155 24 232 rrcurveto
          -203 -1065 rmoveto
          760 hlineto
          11 121 rlineto
          -760 hlineto
          endchar
        </CharString>
        <CharString name="agrave">
          -42 callsubr
          92 452 37 callgsubr
          120 409 -99 callgsubr
          275 1148 -69 callgsubr
        </CharString>
        <CharString name="amacron">
          -42 callsubr
          277 114 37 callgsubr
          207 514 -99 callgsubr
          18 1333 -68 callgsubr
          endchar
        </CharString>
        <CharString name="ampersand">
          424 -20 103 -100 108 603 112 639 102 hstemhm
          105 155 83 137 470 142 38 138 hintmask 00000000
          hintmask 01111111
          105 365 rmoveto
          -278 249 -104 268 137 121 28 53 99 vhcurveto
          hintmask 10111111
          -58 74 107 -26 82 hhcurveto
          36 56 1 13 54 hvcurveto
          15 93 -14 -4 -25 -1 -15 1 rlinecurve
          -103 -2 -80 18 -72 46 rrcurveto
          111 103 63 149 189 vvcurveto
          45 -6 35 -8 28 vhcurveto
          181 hlineto
          8 111 rlineto
          -30 -250 1 -34 hhcurveto
          -72 -49 -14 -15 -15 hvcurveto
          -9 -105 22 12 50 9 50 1 rlinecurve
          13 -35 11 -46 -60 vvcurveto
          -141 -49 -111 -82 -78 vhcurveto
          -148 137 -134 184 -112 195 rrcurveto
          229 123 258 120 263 vvcurveto
          136 -110 166 -228 -239 -172 -169 -241 -113 44 -146 50 -107 vhcurveto
          hintmask 01111111
          -177 -99 -155 -115 -192 vvcurveto
          449 468 rmoveto
          -34 69 -40 114 125 vvcurveto
          168 105 136 164 140 61 -98 -118 -187 -194 -103 -202 -106 vhcurveto
          -294 -464 rmoveto
          135 100 90 130 80 vhcurveto
          105 -181 102 -163 192 -184 rrcurveto
          -36 -74 -86 -19 -94 hhcurveto
          -204 -171 82 196 hvcurveto
          endchar
        </CharString>
        <CharString name="aogonek">
          42 -435 113 306 116 -79 -21 1046 110 hstemhm
          93 154 256 148 hintmask 00000000
          hintmask 11011100
          411 -16 rmoveto
          165 135 116 105 73 hvcurveto
          -3 vlineto
          -19 -200 rlineto
          -89 -48 -173 -100 -140 vvcurveto
          -59 50 38 callsubr
          78 rlineto
          -38 -49 -55 -21 -54 hhcurveto
          -51 -37 28 52 hvcurveto
          hintmask 10111100
          94 154 96 79 52 vhcurveto
          12 hlineto
          157 1156 -113 -37 rlineto
          20 -63 -84 17 -67 hhcurveto
          -439 -194 -428 -313 hvcurveto
          hintmask 11011100
          -100 callsubr
          endchar
        </CharString>
        <CharString name="approxequal">
          -47 306 127 47 126 146 127 47 126 hstemhm
          67 912 -859 912 hintmask 11001000
          122 352 -57 callsubr
          hintmask 00110100
          108 389 -57 callsubr
          endchar
        </CharString>
        <CharString name="aring">
          -42 callsubr
          101 83 356 84 37 callgsubr
          221 33 callsubr
          hintmask 00000000
          hintmask 10100100
          399 -16 rmoveto
          165 135 116 105 73 hvcurveto
          -3 vlineto
          hintmask 01100100
          -19 -202 rlineto
          131 hlineto
          157 1156 -113 -37 rlineto
          20 -63 -84 17 -67 hhcurveto
          -439 -194 -428 -313 hvcurveto
          hintmask 10100100
          -100 callsubr
          hintmask 00011011
          311 1157 -61 callsubr
          endchar
        </CharString>
        <CharString name="asciicircum">
          248 1385 145 0 -20 hstemhm
          186 938 hintmask 00000000
          hintmask 01100000
          186 510 rmoveto
          135 hlineto
          hintmask 10100000
          446 875 226 -875 rlineto
          131 hlineto
          -267 1020 rlineto
          -153 hlineto
          endchar
        </CharString>
        <CharString name="asciitilde">
          27 741 127 47 126 hstem
          140 912 vstem
          195 787 -57 callsubr
          endchar
        </CharString>
        <CharString name="asterisk">
          256 1146 -20 21 -20 hstemhm
          240 983 hintmask 00000000
          hintmask 01100000
          299 831 rmoveto
          269 170 128 95 -36 -146 -52 -302 151 -1 7 303 -9 146 105 -97 227 -172 88 126 rlineto
          hintmask 10100000
          -254 135 -129 58 145 58 284 135 -59 128 -267 -172 -129 -95 37 150 51 303 rlineto
          -148 hlineto
          -7 -303 6 -150 -109 95 -233 176 -87 -127 rlineto
          hintmask 01100000
          260 -139 134 -58 -146 -57 -286 -130 rlineto
          endchar
        </CharString>
        <CharString name="at">
          858 -440 107 338 117 -114 133 854 97 352 101 12 callsubr
          117 305 138 498 135 437 118 7 callsubr
          hintmask 1101111110000000
          121 373 rmoveto
          -517 328 -296 449 174 162 48 68 90 vhcurveto
          -26 76 rlineto
          -35 -64 -181 -50 -144 hhcurveto
          -364 -307 216 508 554 369 499 554 332 258 -150 -429 hvcurveto
          hintmask 1011111110000000
          -372 -218 -352 -180 -31 -8 34 30 41 6 97 13 103 vhcurveto
          26 203 47 259 41 154 -128 -24 rcurveline
          36 -56 -119 18 -58 hhcurveto
          -370 -167 -367 -291 -6 hvcurveto
          hintmask 1101111110000000
          -297 -6 152 -132 135 hhcurveto
          158 138 237 219 91 hvcurveto
          -17 -89 -15 -104 -55 vvcurveto
          hintmask 1011111110000000
          -105 5 -100 94 260 331 332 549 400 -261 256 -419 vhcurveto
          hintmask 1101111110000000
          -590 -478 -448 -724 hvcurveto
          560 71 rmoveto
          247 139 303 260 1 vhcurveto
          59 105 -24 -45 38 hvcurveto
          -68 -304 -219 -501 -148 1 rrcurveto
          -104 1 -62 120 201 vvcurveto
          endchar
        </CharString>
        <CharString name="atilde">
          -42 callsubr
          222 27 callgsubr
          81 154 102 764 hintmask 00000000
          hintmask 10100100
          399 -16 rmoveto
          165 135 116 105 73 hvcurveto
          -3 vlineto
          hintmask 01100100
          -19 -202 rlineto
          131 hlineto
          157 1156 -113 -37 rlineto
          20 -63 -84 17 -67 hhcurveto
          -439 -194 -428 -313 hvcurveto
          hintmask 10100100
          -100 callsubr
          hintmask 00000000
          -19 1315 rmoveto
          hintmask 00010010
          2 callsubr
          hintmask 00011010
          -81 callsubr
          hintmask 00010010
          -22 callsubr
        </CharString>
        <CharString name="b">
          49 -16 25 callgsubr
          hstem
          906 154 vstem
          95 2 rmoveto
          84 25 rlineto
          -22 63 100 -21 77 -74 callgsubr
          endchar
        </CharString>
        <CharString name="backslash">
          -256 -362 1959 hstem
          46 709 vstem
          755 -362 rmoveto
          -577 1959 rlineto
          -132 hlineto
          576 -1959 rlineto
          endchar
        </CharString>
        <CharString name="bar">
          20 callsubr
          -186 rmoveto
          131 1966 -131 hlineto
          endchar
        </CharString>
        <CharString name="braceleft">
          -86 -159 104 1662 103 -15 -21 hstemhm
          305 388 -298 141 hintmask 00000000
          hintmask 10110000
          305 -48 rmoveto
          -87 -2 35 -24 96 hhcurveto
          110 73 15 21 91 hvcurveto
          0 7 57 2 11 vhcurveto
          hintmask 10101000
          -275 hlineto
          94 631 7 44 -21 37 -40 31 rlinecurve
          -34 28 -57 31 -64 29 22 5 106 46 34 17 rrcurveto
          hintmask 11010000
          65 32 35 39 8 54 96 638 rcurveline
          276 hlineto
          hintmask 10110000
          14 10 53 0 vhcurveto
          hintmask 11001000
          0 -175 36 -89 -119 -37 -41 -150 -23 vhcurveto
          -82 -551 -5 -29 -23 -27 -51 -22 rlinecurve
          -52 -24 -78 -23 -69 -18 -14 -97 rcurveline
          62 -17 64 -26 47 -28 36 -21 26 -26 -2 -31 rrcurveto
          hintmask 10110000
          0 -90 -606 -21 vvcurveto
          endchar
        </CharString>
        <CharString name="braceright">
          -86 -164 103 -88 21 1729 104 hstemhm
          379 388 -231 141 hintmask 00000000
          hintmask 01110000
          767 1594 rmoveto
          87 2 -35 24 -96 hhcurveto
          -110 -73 -15 -21 -91 hvcurveto
          0 -7 -57 -2 -11 vhcurveto
          hintmask 01101000
          275 hlineto
          -94 -631 -7 -44 21 -37 40 -31 rlinecurve
          34 -28 57 -31 64 -29 -22 -5 -106 -46 -34 -17 rrcurveto
          hintmask 10110000
          -65 -32 -35 -39 -8 -54 -96 -638 rcurveline
          -276 hlineto
          hintmask 01110000
          -14 -10 -53 0 vhcurveto
          hintmask 10101000
          0 175 -36 89 119 37 41 150 23 vhcurveto
          82 551 5 29 23 27 51 22 rlinecurve
          52 24 78 23 69 18 14 97 rcurveline
          -62 17 -64 26 -47 28 -36 21 -26 26 2 31 rrcurveto
          hintmask 01110000
          0 90 606 21 vvcurveto
          endchar
        </CharString>
        <CharString name="bracketleft">
          -256 -172 104 1675 103 -16 -21 hstemhm
          194 367 hintmask 00000000
          hintmask 10110000
          197 21 rmoveto
          -2 -31 -1 -27 -27 vvcurveto
          -83 35 -25 95 96 115 17 19 85 vhcurveto
          7 66 rlineto
          -64 -167 2 -65 hhcurveto
          hintmask 11010000
          230 1675 rlineto
          292 hlineto
          hintmask 10110000
          9 66 rlineto
          hintmask 11010000
          1 -22 -161 36 -96 hhcurveto
          -121 -36 -45 -146 -19 hvcurveto
          hintmask 10110000
          -44 -337 -150 -889 -16 -272 rrcurveto
          endchar
        </CharString>
        <CharString name="bracketright">
          -256 -154 103 -87 21 1741 104 hstemhm
          356 367 hintmask 00000000
          hintmask 01110000
          720 1535 rmoveto
          2 31 1 27 27 vvcurveto
          83 -35 25 -95 -96 -115 -17 -19 -85 vhcurveto
          -7 -66 rlineto
          64 167 -2 65 hhcurveto
          hintmask 10110000
          -230 -1675 rlineto
          -292 hlineto
          hintmask 01110000
          -9 -66 rlineto
          hintmask 10110000
          -1 22 161 -36 96 hhcurveto
          121 36 45 146 19 hvcurveto
          hintmask 01110000
          44 337 150 889 16 272 rrcurveto
          endchar
        </CharString>
        <CharString name="breve">
          -393 1305 112 hstem
          52 104 vstem
          348 1305 -104 callgsubr
          endchar
        </CharString>
        <CharString name="breve.cap">
          -395 1637 112 hstem
          52 104 vstem
          348 -81 callgsubr
          endchar
        </CharString>
        <CharString name="brokenbar">
          20 callsubr
          886 rmoveto
          131 894 -131 hlineto
          -1966 vmoveto
          131 894 -131 hlineto
          endchar
        </CharString>
        <CharString name="bullet">
          -252 557 334 hstem
          282 331 vstem
          419 557 rmoveto
          118 76 108 93 77 -58 56 -78 -110 -85 -105 -93 -75 59 -61 78 hvcurveto
          endchar
        </CharString>
        <CharString name="c">
          -8 callsubr
          hstem
          89 152 vstem
          89 433 -86 callsubr
        </CharString>
        <CharString name="cacute">
          -8 callsubr
          93 455 hstemhm
          89 152 324 423 hintmask 00101000
          628 1249 -93 callsubr
          hintmask 11010000
          -476 -871 -86 callsubr
        </CharString>
        <CharString name="caron">
          -315 1285 395 hstem
          80 712 vstem
          322 1285 -61 callgsubr
        </CharString>
        <CharString name="caron.cap">
          -317 1614 386 hstem
          50 695 vstem
          288 -65 callsubr
          endchar
        </CharString>
        <CharString name="caronvertical">
          -795 1038 642 hstem
          268 139 vstem
          279 1038 -76 callgsubr
        </CharString>
        <CharString name="ccaron">
          -8 callsubr
          42 callgsubr
          89 152 132 712 hintmask 00101000
          615 1285 -88 callsubr
          hintmask 11010000
          -284 -1180 -86 callsubr
        </CharString>
        <CharString name="ccedilla">
          -199 -465 126 327 110 -90 -21 22 -21 1056 112 hstemhm
          89 152 177 131 hintmask 00000000
          hintmask 10011110
          160 -321 rmoveto
          -56 callgsubr
          72 -11 55 -18 42 hvcurveto
          149 21 105 95 45 59 -50 82 rcurveline
          hintmask 11001110
          -83 callsubr
          hintmask 10101110
          -258 111 -165 209 -23 vhcurveto
          6 -39 3 -50 -44 vvcurveto
          -143 -70 -50 -100 vhcurveto
          hintmask 10011110
          -43 -28 9 9 -17 hvcurveto
          endchar
        </CharString>
        <CharString name="ccircumflex">
          -8 callsubr
          119 435 hstemhm
          89 152 104 683 hintmask 00101000
          404 1275 -89 callgsubr
          hintmask 11010000
          -256 -901 -86 callsubr
        </CharString>
        <CharString name="cdotaccent">
          -8 callsubr
          270 214 hstemhm
          89 152 340 203 hintmask 11010000
          89 433 -84 callsubr
          hintmask 00101000
          578 993 -104 callsubr
          endchar
        </CharString>
        <CharString name="cedilla">
          -631 -465 126 hstem
          281 131 vstem
          265 22 rmoveto
          12 -39 4 -71 -58 -34 callsubr
          -56 callgsubr
          93 -19 66 -28 44 hvcurveto
          -41 4 rlineto
          endchar
        </CharString>
        <CharString name="cent">
          -53 -16 114 -82 -21 1049 111 hstemhm
          140 152 hintmask 00000000
          hintmask 01110000
          414 -5 rmoveto
          -39 -210 rlineto
          115 hlineto
          hintmask 10110000
          37 199 172 6 121 109 50 64 rlinecurve
          -50 82 rlineto
          -86 -87 -85 -61 -114 hhcurveto
          -159 -83 109 241 321 192 275 217 72 72 -17 -40 50 hvcurveto
          39 128 -50 25 -74 12 -66 3 rlinecurve
          50 203 rlineto
          -116 hlineto
          -50 -210 rlineto
          -323 -56 -165 -369 -290 vvcurveto
          hintmask 01110000
          -238 94 -160 180 -40 vhcurveto
          endchar
        </CharString>
        <CharString name="circumflex">
          -315 1275 435 hstem
          97 683 vstem
          156 1275 -31 callsubr
        </CharString>
        <CharString name="circumflex.cap">
          -315 1673 -7 callsubr
          51 681 hintmask 00000000
          hintmask 01100000
          110 1594 rmoveto
          330 270 rlineto
          hintmask 10100000
          -77 callgsubr
          hintmask 01100000
          -340 -347 rlineto
          endchar
        </CharString>
        <CharString name="colon">
          -607 -17 3 callgsubr
          832 3 callgsubr
          hstemhm
          85 210 -113 210 hintmask 00000000
          hintmask 01001000
          85 75 -49 callsubr
          hintmask 10001000
          -7 callgsubr
          hintmask 01001000
          -73 -47 -58 -70 -1 hvcurveto
          hintmask 00000000
          97 832 -49 callsubr
          hintmask 00010100
          -7 callgsubr
          hintmask 00100100
          -14 callsubr
        </CharString>
        <CharString name="colonmonetary">
          217 1535 -20 hstem
          174 1107 vstem
          385 -354 rmoveto
          91 hlineto
          71 359 rlineto
          -13 45 50 -8 56 hhcurveto
          9 hlineto
          -67 -338 rlineto
          90 hlineto
          67 342 173 13 143 49 59 61 rlinecurve
          -43 97 -76 -51 -96 -40 -137 -15 rlinecurve
          261 1318 76 -12 52 -21 23 -16 rlinecurve
          49 121 -45 15 -57 17 -76 11 rlinecurve
          56 280 rlineto
          -90 hlineto
          -54 -271 rlineto
          1 -19 -19 1 -20 hhcurveto
          -36 -36 -3 -4 -35 hvcurveto
          55 276 rlineto
          -91 hlineto
          -59 -295 rlineto
          -342 -91 -239 -322 -454 vvcurveto
          -241 83 -259 206 -113 vhcurveto
          364 1383 rmoveto
          6 33 35 3 36 hhcurveto
          21 21 -1 -1 20 hvcurveto
          -264 -1333 rlineto
          -9 hlineto
          -55 -50 10 19 -44 hvcurveto
          -81 52 rmoveto
          -114 101 -45 188 3 210 5 376 151 257 241 88 rrcurveto
          endchar
        </CharString>
        <CharString name="comma">
          -607 -480 -21 hstem
          184 159 vstem
          -29 callsubr
          endchar
        </CharString>
        <CharString name="commaaccent">
          -743 -539 -21 hstem
          116 145 vstem
          48 -143 -100 callgsubr
          endchar
        </CharString>
        <CharString name="copyright">
          951 90 100 277 121 704 121 273 97 hstem
          196 110 301 148 1012 -46 callgsubr
          301 -6 rmoveto
          -246 158 -219 267 130 118 41 52 63 vhcurveto
          -36 95 rlineto
          -35 -58 -94 -32 -103 hhcurveto
          -169 -128 122 233 193 113 156 203 95 74 -24 -31 50 hvcurveto
          27 125 rlineto
          19 -39 -78 32 -115 hhcurveto
          -309 -170 -211 -270 1 hvcurveto
          endchar
        </CharString>
        <CharString name="currency">
          404 252 102 672 102 hstem
          326 114 652 114 vstem
          230 229 rmoveto
          87 -86 191 191 rlineto
          -52 73 89 -30 96 hhcurveto
          99 92 33 55 74 hvcurveto
          192 -191 87 86 -192 192 rlineto
          55 73 33 91 99 vvcurveto
          96 -31 88 -53 72 vhcurveto
          190 190 -87 87 -187 -188 rlineto
          58 -75 -95 35 -102 hhcurveto
          -98 -90 -32 -53 -73 hvcurveto
          -191 193 -87 -87 191 -191 rlineto
          -58 -74 -34 -93 -101 vvcurveto
          -103 35 -93 58 -75 vhcurveto
          21 271 rmoveto
          185 146 151 180 181 145 -151 -185 -185 -145 -151 -181 -180 -146 151 185 vhcurveto
          endchar
        </CharString>
        <CharString name="d">
          18 callsubr
          -2 callsubr
          hintmask 00000000
          hintmask 10110000
          -35 callgsubr
          hintmask 01110000
          -70 callgsubr
          hintmask 10110000
          -87 callgsubr
          endchar
        </CharString>
        <CharString name="dagger">
          -295 1146 114 hstem
          138 735 vstem
          306 151 rmoveto
          90 hlineto
          158 857 12 138 rlineto
          291 hlineto
          16 114 rlineto
          -307 hlineto
          56 209 29 177 rlineto
          -144 hlineto
          -26 -177 -11 -209 rlineto
          -316 hlineto
          -16 -114 rlineto
          299 hlineto
          -27 -138 rlineto
          endchar
        </CharString>
        <CharString name="daggerdbl">
          -295 649 114 383 114 hstemhm
          131 738 -465 165 hintmask 00000000
          hintmask 11100000
          292 -51 rmoveto
          88 hlineto
          108 561 13 139 240 1 16 114 rlineto
          hintmask 11010000
          -248 hlineto
          54 217 12 165 rlineto
          277 hlineto
          17 114 rlineto
          -294 hlineto
          55 209 28 177 rlineto
          -144 hlineto
          -26 -177 -9 -209 rlineto
          -287 hlineto
          -16 -114 rlineto
          271 hlineto
          -39 -165 -8 -217 rlineto
          -251 hlineto
          -18 -114 242 -1 -29 -139 rlineto
          endchar
        </CharString>
        <CharString name="dcaron">
          319 -16 116 -79 -21 1016 642 -611 109 -2 callsubr
          1064 139 hintmask 00000000
          hintmask 10011000
          -35 callgsubr
          hintmask 01011000
          -70 callgsubr
          hintmask 10011000
          -87 callgsubr
          hintmask 00100100
          885 916 -76 callgsubr
        </CharString>
        <CharString name="dcroat">
          18 callsubr
          136 100 -2 callsubr
          hintmask 00000000
          hintmask 10111000
          -35 callgsubr
          hintmask 01111000
          -20 -208 rlineto
          132 hlineto
          177 1292 rlineto
          144 hlineto
          13 100 rlineto
          -144 hlineto
          34 245 rlineto
          -148 hlineto
          -34 -245 rlineto
          -290 hlineto
          -13 -100 rlineto
          289 hlineto
          -22 -161 rlineto
          14 -56 -66 11 -55 hhcurveto
          -438 -202 -426 -314 hvcurveto
          hintmask 10111000
          -87 callgsubr
          endchar
        </CharString>
        <CharString name="degree">
          -211 955 93 459 93 hstem
          147 108 438 108 vstem
          463 955 rmoveto
          190 145 139 185 3 hvcurveto
          177 3 -137 144 -185 hhcurveto
          -190 -142 -138 -183 -3 hvcurveto
          -177 -3 137 -147 182 hhcurveto
          5 93 rmoveto
          -122 -94 103 128 3 hvcurveto
          130 2 92 98 129 hhcurveto
          123 95 -98 -130 -3 hvcurveto
          -132 -2 -92 -99 -131 hhcurveto
          endchar
        </CharString>
        <CharString name="dieresis">
          -301 1410 213 hstemhm
          95 27 callsubr
          hintmask 00000000
          hintmask 11100000
          602 1410 -34 callgsubr
        </CharString>
        <CharString name="dieresis.cap">
          -303 1721 214 hstem
          87 2 callgsubr
          vstem
          592 1721 -63 callsubr
        </CharString>
        <CharString name="divide">
          228 277 220 217 122 214 220 hstemhm
          625 224 hintmask 00000000
          hintmask 11110000
          716 1050 rmoveto
          59 66 45 74 8 hvcurveto
          58 8 -27 43 -71 hhcurveto
          -58 -68 -47 -71 -8 hvcurveto
          -67 -8 45 -35 54 hhcurveto
          -473 -336 rmoveto
          869 hlineto
          14 122 rlineto
          -869 hlineto
          273 -457 rmoveto
          -66 -8 44 -36 55 hhcurveto
          60 63 45 74 9 hvcurveto
          58 8 -26 43 -71 hhcurveto
          -59 -67 -48 -70 -8 hvcurveto
          endchar
        </CharString>
        <CharString name="dollar">
          94 -18 115 1333 111 -111 299 -188 -20 hstemhm
          286 151 427 156 hintmask 00000000
          hintmask 10011100
          128 68 rmoveto
          39 -33 128 -43 145 -10 -34 -212 rcurveline
          137 hlineto
          35 213 259 23 187 147 -4 258 rlinecurve
          -4 208 -164 111 -142 93 -162 107 -117 78 6 181 rrcurveto
          hintmask 11001100
          200 5 189 41 123 hhcurveto
          108 123 -28 -56 57 hvcurveto
          48 115 -40 28 -77 40 -141 12 rlinecurve
          hintmask 10101100
          30 188 rlineto
          -137 hlineto
          -30 -186 -239 -17 -175 -140 5 -236 rlinecurve
          4 -230 183 -121 148 -96 rrcurveto
          156 -101 87 -89 -139 vvcurveto
          -193 -174 -84 -184 -145 -154 54 40 -37 vhcurveto
          endchar
        </CharString>
        <CharString name="dong">
          221 135 156 957 160 307 -21 hstem
          56 1331 vstem
          559 291 rmoveto
          180 94 70 39 42 hvcurveto
          -7 -55 -3 -28 -4 vvcurveto
          -11 1 -11 15 vhcurveto
          107 hlineto
          147 1117 rlineto
          235 hlineto
          17 113 rlineto
          -237 hlineto
          23 173 rlineto
          -145 hlineto
          -24 -173 rlineto
          -268 hlineto
          -17 -113 rlineto
          270 hlineto
          -7 -54 -21 -148 rlineto
          16 -32 -63 26 -97 hhcurveto
          -360 -213 -274 -322 -245 163 -116 200 hvcurveto
          18 126 rmoveto
          -135 -91 85 182 227 134 214 264 111 63 -24 -13 15 hvcurveto
          -73 -564 rlineto
          -23 -23 -61 -84 -204 hhcurveto
          560 -417 rmoveto
          21 135 rlineto
          -1082 hlineto
          -20 -135 rlineto
          endchar
        </CharString>
        <CharString name="dotaccent">
          -723 1426 214 hstem
          61 203 vstem
          147 1426 -104 callsubr
          endchar
        </CharString>
        <CharString name="dotaccent.cap">
          -721 1707 213 hstem
          59 201 vstem
          143 1707 -45 callsubr
        </CharString>
        <CharString name="dotlessi">
          -39 callsubr
          hstem
          133 303 vstem
          133 hmoveto
          -83 callgsubr
          endchar
        </CharString>
        <CharString name="dotlessj">
          -534 41 callgsubr
          hstem
          -244 688 vstem
          149 59 -94 callgsubr
          endchar
        </CharString>
        <CharString name="e">
          -79 -16 -53 callgsubr
          hstem
          90 157 563 149 vstem
          90 441 -94 callsubr
        </CharString>
        <CharString name="eacute">
          -79 -16 -53 callgsubr
          93 455 hstemhm
          90 157 302 423 -162 149 hintmask 00010100
          612 1249 -93 callsubr
          hintmask 11101010
          -459 -863 -94 callsubr
        </CharString>
        <CharString name="ebreve">
          -79 -16 -53 callgsubr
          149 112 hstemhm
          90 157 102 104 357 149 hintmask 11101010
          90 441 -106 callgsubr
          hintmask 00010100
          393 755 -104 callgsubr
          endchar
        </CharString>
        <CharString name="ecaron">
          -79 -16 -53 callgsubr
          42 callgsubr
          90 157 111 712 -260 149 hintmask 00010100
          600 1285 -88 callsubr
          hintmask 11101010
          -268 -1172 -94 callsubr
        </CharString>
        <CharString name="ecircumflex">
          -79 -16 -53 callgsubr
          119 435 hstemhm
          90 157 83 683 -203 149 hintmask 00010100
          389 1275 -89 callgsubr
          hintmask 11101010
          -240 -893 -94 callsubr
        </CharString>
        <CharString name="edieresis">
          -79 -16 -53 callgsubr
          254 213 hstemhm
          90 157 108 27 callsubr
          -169 149 hintmask 00000000
          hintmask 00010110
          862 1410 -97 callgsubr
          hintmask 11101001
          -351 -969 -94 callsubr
        </CharString>
        <CharString name="edotaccent">
          -79 -16 -53 callgsubr
          270 214 hstemhm
          90 157 319 203 41 149 hintmask 11101010
          90 441 -106 callgsubr
          hintmask 00010100
          400 876 -104 callsubr
          endchar
        </CharString>
        <CharString name="egrave">
          -79 -16 -53 callgsubr
          93 452 hstemhm
          90 157 40 409 114 149 hintmask 11101010
          90 441 -106 callgsubr
          hintmask 00010100
          379 699 -69 callgsubr
        </CharString>
        <CharString name="eight">
          139 -17 104 1383 99 hstemhm
          120 161 15 153 450 163 -80 150 hintmask 00000000
          hintmask 11100100
          120 348 rmoveto
          -247 222 -118 204 vhcurveto
          hintmask 11101000
          281 235 156 262 171 -154 133 -146 100 hvcurveto
          hintmask 11110100
          201 72 169 168 198 vvcurveto
          202 -163 124 -211 -259 -203 -140 -258 -160 115 -109 106 -82 vhcurveto
          hintmask 11100100
          -190 -82 -207 -168 -222 vvcurveto
          563 516 rmoveto
          hintmask 11110100
          -124 88 -110 101 145 vvcurveto
          161 131 111 161 125 116 -78 -160 vhcurveto
          hintmask 11100100
          -179 -163 -128 -136 -61 vhcurveto
          -402 -497 rmoveto
          3 186 172 143 141 67 rrcurveto
          hintmask 11101000
          172 -115 130 -124 -151 vvcurveto
          -173 -154 -113 -172 vhcurveto
          hintmask 11100100
          -184 -108 121 159 hvcurveto
          endchar
        </CharString>
        <CharString name="ellipsis">
          399 -17 220 hstem
          106 1218 vstem
          1112 85 rmoveto
          -67 -9 37 -35 55 hhcurveto
          61 57 43 75 10 hvcurveto
          59 8 -25 43 -72 hhcurveto
          -59 -53 -48 -70 -10 hvcurveto
          -502 hmoveto
          -67 -9 36 -35 55 hhcurveto
          61 17 callgsubr
          -503 hmoveto
          -67 -9 37 -35 55 hhcurveto
          60 17 callgsubr
          endchar
        </CharString>
        <CharString name="emacron">
          -79 -16 -53 callgsubr
          278 114 hstemhm
          90 157 128 514 -79 149 hintmask 11101010
          90 441 -106 callgsubr
          hintmask 00010100
          123 884 -68 callgsubr
          endchar
        </CharString>
        <CharString name="emdash">
          918 712 121 hstem
          220 1613 vstem
          220 712 rmoveto
          1590 hlineto
          23 121 rlineto
          -1591 hlineto
          endchar
        </CharString>
        <CharString name="endash">
          425 712 121 hstem
          220 1120 vstem
          220 712 rmoveto
          1097 hlineto
          23 121 rlineto
          -1097 hlineto
          endchar
        </CharString>
        <CharString name="eng">
          84 -518 81 458 -21 1019 137 -16 -20 hstemhm
          909 152 hintmask 00000000
          hintmask 11101000
          93 hmoveto
          -21 callgsubr
          97 713 rlineto
          153 107 198 153 132 hhcurveto
          100 34 -56 -108 -167 -68 -379 -42 -260 hvcurveto
          -247 -40 -76 -239 -204 hhcurveto
          -20 -50 8 13 -24 hvcurveto
          -27 -62 rlineto
          -24 22 62 -16 63 hhcurveto
          223 157 168 350 55 hvcurveto
          52 320 66 388 3 155 rrcurveto
          207 -74 86 -151 -172 -186 -134 -150 -119 vhcurveto
          hintmask 11011000
          30 268 rlineto
          -141 hlineto
          endchar
        </CharString>
        <CharString name="eogonek">
          -68 -435 113 306 -53 callgsubr
          hstem
          90 157 114 148 301 149 vstem
          90 441 rmoveto
          -225 -6 106 -232 289 hhcurveto
          45 43 7 11 40 hvcurveto
          -92 -58 -154 -111 -119 vvcurveto
          -59 51 -90 137 116 85 55 39 45 vhcurveto
          -40 78 rlineto
          -38 -49 -54 -21 23 callgsubr
          258 207 61 62 hvcurveto
          -4 -2 27 23 21 23 15 21 rlinecurve
          -43 86 rlineto
          -115 -114 -125 -55 -109 hhcurveto
          -212 -45 4 callgsubr
          8 hvcurveto
          231 12 481 120 331 vvcurveto
          141 -89 109 -190 -343 -237 -317 -398 -10 vhcurveto
          162 109 rmoveto
          228 21 153 265 222 hhcurveto
          99 63 -46 -104 -210 -333 -126 -225 -7 hvcurveto
          endchar
        </CharString>
        <CharString name="equal">
          -47 358 120 389 120 hstem
          99 898 vstem
          169 867 -5 callsubr
          -83 -629 -5 callsubr
          endchar
        </CharString>
        <CharString name="estimated">
          262 -16 90 557 106 529 90 hstem
          113 227 726 212 vstem
          340 266 rmoveto
          365 927 vlineto
          11 51 0 64 86 vvcurveto
          -11 329 -238 200 -289 -5 rrcurveto
          -416 -7 -211 -286 -392 vvcurveto
          -430 231 -257 392 138 199 37 61 85 vhcurveto
          -30 87 rlineto
          -39 -69 -161 -56 -145 hhcurveto
          -179 -147 57 135 -87 hvcurveto
          471 vmoveto
          327 vlineto
          138 86 141 64 163 hhcurveto
          171 104 -62 -87 61 hvcurveto
          -380 vlineto
          endchar
        </CharString>
        <CharString name="eth">
          52 -17 105 959 108 543 -21 hstem
          89 160 664 152 vstem
          89 437 rmoveto
          -214 129 -240 271 375 201 407 478 277 -93 227 -210 194 vhcurveto
          -7 6 rlineto
          51 59 101 116 0 vvcurveto
          -76 69 rlineto
          0 -96 -116 -62 -68 vhcurveto
          -93 61 -122 58 -76 18 -34 -92 rcurveline
          74 -17 96 -53 83 -59 -163 -172 rcurveline
          82 -68 160 179 139 -123 74 -128 28 -195 rlinecurve
          77 -49 -115 37 -112 hhcurveto
          -284 -272 -266 -452 hvcurveto
          160 -8 rmoveto
          318 143 300 248 186 79 -152 -57 8 vhcurveto
          3 -43 -13 -103 -9 -77 rrcurveto
          -291 -39 -151 -236 -194 hhcurveto
          -170 -91 166 175 hvcurveto
          endchar
        </CharString>
        <CharString name="exclam">
          -489 4 -21 hstem
          131 440 vstem
          236 488 -52 callgsubr
          endchar
        </CharString>
        <CharString name="exclamdbl">
          88 4 -21 hstemhm
          131 440 135 440 hintmask 10100000
          811 488 -52 callgsubr
          hintmask 11000000
          -471 403 -52 callgsubr
          endchar
        </CharString>
        <CharString name="exclamdown">
          -489 1340 21 hstem
          84 440 vstem
          419 856 rmoveto
          -120 hlineto
          -215 -1290 rlineto
          172 hlineto
          267 1693 rmoveto
          67 9 -44 35 -54 hhcurveto
          -68 -57 -43 -75 -11 hvcurveto
          -59 -8 26 -43 72 hhcurveto
          65 61 48 70 9 hvcurveto
          endchar
        </CharString>
        <CharString name="f">
          -415 21 -9 callgsubr
          hintmask 00000000
          hintmask 11011000
          167 hmoveto
          -95 callsubr
          hintmask 11101000
          -87 callsubr
          hintmask 11011000
          -12 callsubr
          hintmask 11101000
          -78 callgsubr
        </CharString>
        <CharString name="f_f">
          279 21 -9 callgsubr
          -42 737 hintmask 00000000
          hintmask 11011000
          167 hmoveto
          -95 callsubr
          hintmask 11101000
          -87 callsubr
          hintmask 11011000
          -12 callsubr
          hintmask 11101000
          -99 callsubr
          hintmask 00000000
          -46 callsubr
          hintmask 11010100
          -87 callsubr
          hintmask 11100100
          -12 callsubr
          hintmask 11010100
          -78 callgsubr
        </CharString>
        <CharString name="f_f_i">
          -92 callsubr
        </CharString>
        <CharString name="f_f_i_trk">
          844 1 callgsubr
          4 -20 438 -37 callsubr
          -42 737 -61 303 hintmask 00000000
          hintmask 11001100
          167 hmoveto
          -95 callsubr
          hintmask 11010100
          -87 callsubr
          hintmask 11001100
          -12 callsubr
          hintmask 11010100
          -99 callsubr
          hintmask 00000000
          -46 callsubr
          hintmask 11001010
          -87 callsubr
          hintmask 11010010
          -12 callsubr
          hintmask 11001010
          -99 callsubr
          hintmask 11010010
          524 -1021 rmoveto
          -83 callgsubr
          hintmask 10100001
          116 285 -104 callsubr
          endchar
        </CharString>
        <CharString name="f_f_l">
          843 3 1634 -1616 -9 callgsubr
          -42 737 -62 371 hintmask 10000001
          1522 19 callsubr
          -1578 -1637 rmoveto
          -95 callsubr
          hintmask 01101100
          -87 callsubr
          hintmask 01110100
          -12 callsubr
          hintmask 01101100
          -99 callsubr
          hintmask 01110100
          -46 callsubr
          hintmask 00000000
          -87 callsubr
          hintmask 01101010
          -12 callsubr
          hintmask 01110010
          -78 callgsubr
        </CharString>
        <CharString name="f_i_trk">
          149 1 callgsubr
          4 -20 305 214 -81 -37 callsubr
          -61 -15 callgsubr
          7 callsubr
          hintmask 1100011000000000
          167 hmoveto
          -95 callsubr
          hintmask 1100101000000000
          -87 callsubr
          hintmask 1100011000000000
          -12 callsubr
          hintmask 1100101000000000
          -99 callsubr
          hintmask 1010000100000000
          524 -1021 rmoveto
          -83 callgsubr
          hintmask 0001000010000000
          116 285 -104 callsubr
          endchar
        </CharString>
        <CharString name="ffi_dflt">
          -92 callsubr
        </CharString>
        <CharString name="fi">
          -79 callsubr
        </CharString>
        <CharString name="fi_trk">
          -79 callsubr
        </CharString>
        <CharString name="five">
          -6 -346 115 691 117 439 128 -128 144 hstemhm
          770 175 hintmask 00000000
          hintmask 11101000
          57 -221 rmoveto
          -18 -108 rlineto
          -14 40 57 -3 33 hhcurveto
          412 364 225 331 217 -113 150 -265 -92 -103 -24 -25 -65 hvcurveto
          120 488 rlineto
          581 hlineto
          hintmask 11011000
          31 144 rlineto
          -128 hlineto
          hintmask 11101000
          -19 -16 rlineto
          -582 hlineto
          -154 -695 58 -58 rlineto
          31 67 111 38 106 hhcurveto
          184 88 -105 -173 -271 -312 -142 -309 -33 -26 3 7 -33 hvcurveto
          endchar
        </CharString>
        <CharString name="fl">
          148 3 1634 -1616 -9 callgsubr
          -61 371 hintmask 10000010
          828 19 callsubr
          -884 -1637 rmoveto
          -95 callsubr
          hintmask 01101100
          -87 callsubr
          hintmask 01110100
          -12 callsubr
          hintmask 01101100
          -78 callgsubr
        </CharString>
        <CharString name="florin">
          -51 1033 119 407 119 4 -21 hstemhm
          196 822 hintmask 00000000
          hintmask 10110000
          257 -356 rmoveto
          5 callgsubr
          182 1389 rlineto
          301 hlineto
          12 119 rlineto
          -297 hlineto
          16 119 rlineto
          hintmask 11010000
          229 30 82 59 130 hhcurveto
          91 39 -19 -8 16 hvcurveto
          hintmask 10110000
          9 129 rlineto
          hintmask 11010000
          6 -12 -50 11 -89 hhcurveto
          -174 -188 -144 -306 -38 hvcurveto
          -10 -76 -250 -40 -11 -79 rlineto
          245 hlineto
          endchar
        </CharString>
        <CharString name="four">
          130 0 107 -107 127 hstemhm
          23 1096 41 callsubr
          50 hmoveto
          647 hlineto
          -49 -375 rlineto
          145 hlineto
          47 375 rlineto
          263 hlineto
          hintmask 01100000
          16 133 -263 -11 67 527 -147 -28 rlineto
          hintmask 10100000
          -64 -507 -524 -13 108 158 577 929 -106 68 rlineto
          -38 hlineto
          -252 -452 -231 -383 -223 -349 rrcurveto
          endchar
        </CharString>
        <CharString name="four.numr">
          84 824 115 769 -21 hstem
          131 987 vstem
          635 476 rmoveto
          -47 callsubr
          -610 -867 28 -74 rlineto
          525 hlineto
          endchar
        </CharString>
        <CharString name="foursuperior">
          -1110 endchar
        </CharString>
        <CharString name="fraction">
          -84 8 callsubr
          158 804 vstem
          158 hmoveto
          -18 callsubr
        </CharString>
        <CharString name="franc">
          60 460 259 hstem
          14 1154 vstem
          346 hmoveto
          43 339 rlineto
          272 hlineto
          14 121 rlineto
          -271 hlineto
          34 265 -24 callsubr
          -135 -1070 rlineto
          -226 hlineto
          -14 -121 rlineto
          225 hlineto
          -43 -339 rlineto
          endchar
        </CharString>
        <CharString name="g">
          -48 callgsubr
          hstem
          79 154 vstem
          153 -344 -67 callgsubr
        </CharString>
        <CharString name="gbreve">
          -48 callgsubr
          149 112 -2 callsubr
          187 104 hintmask 11101000
          153 -344 -107 callgsubr
          hintmask 00010100
          293 1205 -104 callgsubr
          endchar
        </CharString>
        <CharString name="gcaron">
          -48 callgsubr
          42 callgsubr
          79 154 149 712 hintmask 11101000
          153 -344 -107 callgsubr
          hintmask 00010100
          201 1185 -61 callgsubr
        </CharString>
        <CharString name="gcircumflex">
          -48 callgsubr
          119 435 -2 callsubr
          168 683 hintmask 00010100
          460 1275 -89 callgsubr
          hintmask 11101000
          -248 -1678 -67 callgsubr
        </CharString>
        <CharString name="gcommaaccent">
          -48 callgsubr
          97 509 -2 callsubr
          331 146 hintmask 00010100
          697 1253 rmoveto
          94 92 5 40 -53 12 -36 65 3 59 rlinecurve
          4 93 48 56 56 33 2 20 rcurveline
          -61 39 -78 -18 -112 -110 -5 -161 rlinecurve
          -2 -97 51 -105 84 -18 rrcurveto
          hintmask 11101000
          -544 -1597 -67 callgsubr
        </CharString>
        <CharString name="gdotaccent">
          -48 callgsubr
          270 214 -2 callsubr
          405 203 hintmask 11101000
          153 -344 -107 callgsubr
          hintmask 00010100
          301 1326 -104 callsubr
          endchar
        </CharString>
        <CharString name="germandbls">
          70 -16 117 1379 108 hstemhm
          678 144 94 157 -139 154 hintmask 00000000
          hintmask 11101000
          85 3 6 callsubr
          110 881 rlineto
          497 67 149 99 177 hhcurveto
          143 55 -89 -95 -125 -72 -84 -94 -96 hvcurveto
          -51 -55 -39 -47 -85 vvcurveto
          -81 81 -100 60 -73 vhcurveto
          hintmask 11110000
          43 -60 54 -90 -99 vvcurveto
          -146 -86 -54 -163 vhcurveto
          -100 -1 -84 50 -34 31 -20 -144 rcurveline
          -25 44 107 -28 99 hhcurveto
          242 152 128 196 143 -68 100 -57 78 hvcurveto
          -62 82 -64 56 57 vvcurveto
          hintmask 11101000
          132 266 79 266 vvcurveto
          186 -127 101 -183 -212 -286 -59 -600 -78 vhcurveto
          endchar
        </CharString>
        <CharString name="grave">
          -569 1249 452 hstem
          72 409 vstem
          416 1249 -69 callgsubr
        </CharString>
        <CharString name="grave.cap">
          -588 1672 -21 hstem
          52 367 vstem
          363 1601 -20 callsubr
        </CharString>
        <CharString name="greater">
          258 179 1148 hstem
          250 1023 vstem
          1273 801 rmoveto
          -888 526 -15 -135 732 -432 -833 -432 -19 -149 1011 524 rlineto
          endchar
        </CharString>
        <CharString name="greaterequal">
          258 113 133 hstem
          141 1070 vstem
          1203 699 rmoveto
          8 59 -887 446 -19 -137 688 -333 -777 -339 -19 -149 rlineto
          892 -247 rmoveto
          15 114 rlineto
          -948 hlineto
          -15 -114 rlineto
          endchar
        </CharString>
        <CharString name="gtilde">
          -48 callgsubr
          223 27 callgsubr
          79 154 107 764 hintmask 11100100
          153 -344 -107 callgsubr
          hintmask 00000000
          -15 1316 rmoveto
          hintmask 00010010
          2 callsubr
          hintmask 00011010
          -81 callsubr
          hintmask 00010010
          -22 callsubr
        </CharString>
        <CharString name="guillemotleft">
          768 152 934 hstemhm
          249 740 -64 740 hintmask 11000000
          249 551 -23 callgsubr
          hintmask 10100000
          660 -120 -23 callgsubr
          endchar
        </CharString>
        <CharString name="guillemotright">
          768 152 934 hstemhm
          226 740 -64 740 hintmask 11000000
          966 687 -23 callsubr
          hintmask 10100000
          692 120 -23 callsubr
          endchar
        </CharString>
        <CharString name="guilsinglleft">
          80 152 934 hstem
          237 740 vstem
          237 551 -23 callgsubr
          endchar
        </CharString>
        <CharString name="guilsinglright">
          80 152 934 hstem
          193 740 vstem
          933 687 -23 callsubr
          endchar
        </CharString>
        <CharString name="h">
          88 21 -21 46 callgsubr
          hstem
          911 151 vstem
          -78 callsubr
          55 479 rlineto
          -148 hlineto
          endchar
        </CharString>
        <CharString name="hbar">
          88 21 -21 46 callgsubr
          136 100 hstem
          911 151 vstem
          -78 callsubr
          15 134 rlineto
          299 hlineto
          13 100 rlineto
          -300 hlineto
          28 245 rlineto
          -148 hlineto
          -32 -245 rlineto
          -130 hlineto
          -13 -100 rlineto
          130 hlineto
          endchar
        </CharString>
        <CharString name="hcircumflex">
          88 21 -21 46 callgsubr
          313 -7 callsubr
          430 681 -200 151 hintmask 11000100
          -78 callsubr
          55 479 rlineto
          -148 hlineto
          hintmask 00000000
          181 -247 rmoveto
          330 270 rlineto
          hintmask 00011000
          -77 callgsubr
          hintmask 00101000
          -340 -347 rlineto
          endchar
        </CharString>
        <CharString name="hungarumlaut">
          -192 1250 456 hstem
          49 783 vstem
          547 1250 -47 callgsubr
          endchar
        </CharString>
        <CharString name="hungarumlaut.cap">
          -188 1569 427 hstem
          59 828 vstem
          529 1571 -50 callsubr
        </CharString>
        <CharString name="hyphen">
          -5 callgsubr
        </CharString>
        <CharString name="i">
          -39 callsubr
          305 214 hstemhm
          133 -15 callgsubr
          hintmask 11010000
          133 hmoveto
          -83 callgsubr
          hintmask 00101000
          116 285 -104 callsubr
          endchar
        </CharString>
        <CharString name="i.cy">
          -39 callsubr
          302 214 hstemhm
          133 -15 callgsubr
          hintmask 11010000
          133 hmoveto
          -83 callgsubr
          hintmask 00101000
          -64 callgsubr
          endchar
        </CharString>
        <CharString name="i.dot">
          -39 callsubr
          302 214 hstemhm
          133 -15 callgsubr
          hintmask 11010000
          133 hmoveto
          -83 callgsubr
          hintmask 00101000
          -64 callgsubr
          endchar
        </CharString>
        <CharString name="iacute">
          -39 callsubr
          125 455 hstemhm
          133 303 -136 423 hintmask 00101000
          363 1249 -93 callsubr
          hintmask 11010000
          -167 -1304 rmoveto
          -83 callgsubr
          endchar
        </CharString>
        <CharString name="ibreve">
          -39 callsubr
          181 112 hstemhm
          99 104 -70 303 hintmask 11001000
          133 hmoveto
          -83 callgsubr
          hintmask 00110000
          108 161 -104 callgsubr
          endchar
        </CharString>
        <CharString name="icircumflex">
          -39 callsubr
          151 435 hstemhm
          80 683 -630 303 hintmask 00110000
          139 1275 -89 callgsubr
          hintmask 11001000
          53 -1334 rmoveto
          -83 callgsubr
          endchar
        </CharString>
        <CharString name="idieresis">
          -39 callsubr
          286 213 hstemhm
          105 203 -175 303 90 203 hintmask 00000000
          hintmask 00110100
          612 1410 -97 callgsubr
          hintmask 11001000
          -58 -1410 rmoveto
          -83 callgsubr
          endchar
        </CharString>
        <CharString name="igrave">
          -39 callsubr
          125 452 hstemhm
          38 409 -314 303 hintmask 11001000
          133 hmoveto
          -83 callgsubr
          hintmask 00110000
          95 105 -69 callgsubr
        </CharString>
        <CharString name="ij">
          33 19 callgsubr
          302 214 hstemhm
          133 -15 callgsubr
          -199 688 -135 203 hintmask 10100010
          714 59 -94 callgsubr
          hintmask 01101000
          -727 -1144 rmoveto
          -83 callgsubr
          hintmask 00010100
          -64 callgsubr
          hintmask 00010001
          557 hmoveto
          61 52 53 67 4 hvcurveto
          54 3 44 callsubr
          -56 -52 -45 callgsubr
          -42 51 hhcurveto
          endchar
        </CharString>
        <CharString name="ij_acutecomb">
          30 19 callgsubr
          125 455 hstemhm
          133 875 -134 423 hintmask 11101000
          363 1252 -93 callsubr
          60 -1698 rmoveto
          -40 -86 rlineto
          -19 25 46 -19 65 hhcurveto
          217 138 192 328 44 hvcurveto
          153 1139 rlineto
          -149 hlineto
          -146 -1085 rlineto
          -266 -35 -53 -204 -190 hhcurveto
          -28 -34 10 10 -13 hvcurveto
          -227 391 rmoveto
          -83 callgsubr
          hintmask 00010100
          650 105 -36 callsubr
        </CharString>
        <CharString name="imacron">
          -39 callsubr
          310 114 hstemhm
          125 514 -506 303 hintmask 11001000
          133 hmoveto
          -83 callgsubr
          hintmask 00110000
          -162 290 -68 callgsubr
          endchar
        </CharString>
        <CharString name="infinity">
          694 229 116 534 125 hstem
          74 151 1355 151 vstem
          484 230 rmoveto
          182 2 148 136 88 134 rrcurveto
          -137 87 113 -136 197 hhcurveto
          262 170 161 248 189 -125 181 -281 -4 hvcurveto
          -179 -3 -154 -141 -87 -134 rrcurveto
          139 -90 -119 139 -202 hhcurveto
          -229 -191 -139 -265 -195 150 -179 260 4 hvcurveto
          498 392 rmoveto
          115 69 118 142 139 hhcurveto
          189 83 -120 -135 -133 -86 -146 -169 -158 -112 157 120 -73 hvcurveto
          -481 -276 rmoveto
          -196 -80 131 132 140 100 130 183 151 97 -157 -117 71 hvcurveto
          -152 -89 -116 -107 -121 hhcurveto
          endchar
        </CharString>
        <CharString name="integral">
          -68 -518 125 1953 125 hstem
          254 152 269 152 vstem
          175 -292 rmoveto
          -64 -103 rlineto
          -74 67 128 -49 128 hhcurveto
          288 105 210 280 hvcurveto
          424 -421 409 401 vvcurveto
          210 73 144 186 105 73 -36 -54 34 vhcurveto
          87 87 rlineto
          90 -58 -106 38 -131 hhcurveto
          -282 -133 -201 -278 hvcurveto
          -421 421 -413 -401 vvcurveto
          -278 -99 -86 -162 -128 -81 69 32 -30 vhcurveto
          endchar
        </CharString>
        <CharString name="iogonek">
          -504 -435 113 343 -21 1144 -20 302 214 hstem
          -113 149 246 244 vstem
          409 1426 -104 callsubr
          -260 -1424 rmoveto
          -88 -49 -174 -100 -140 vvcurveto
          -58 51 38 callsubr
          77 rlineto
          -38 -49 -55 -20 -55 hhcurveto
          -50 -37 28 52 94 154 96 79 52 hvcurveto
          28 hlineto
          155 1144 rlineto
          -149 hlineto
          endchar
        </CharString>
        <CharString name="itilde">
          -39 callsubr
          255 27 callgsubr
          19 764 -650 303 hintmask 11000100
          133 hmoveto
          -83 callgsubr
          hintmask 00000000
          -200 272 rmoveto
          hintmask 00101000
          2 callsubr
          hintmask 00111000
          -81 callsubr
          hintmask 00101000
          -22 callsubr
        </CharString>
        <CharString name="j">
          -531 41 callgsubr
          305 214 hstemhm
          -244 26 callsubr
          hintmask 11010000
          149 59 -94 callgsubr
          hintmask 00101000
          112 285 -104 callsubr
          endchar
        </CharString>
        <CharString name="jcircumflex">
          -534 41 callgsubr
          151 435 hstemhm
          -244 688 -375 683 hintmask 11010000
          149 59 -94 callgsubr
          hintmask 00101000
          -167 131 -31 callsubr
        </CharString>
        <CharString name="k">
          -87 21 -21 callsubr
          hstem
          97 906 vstem
          97 hmoveto
          -41 callsubr
        </CharString>
        <CharString name="kcommaaccent">
          -87 -539 -21 581 -21 callsubr
          hstemhm
          97 906 -560 145 hintmask 10001000
          375 -143 -20 callgsubr
          -372 52 rmoveto
          -41 callsubr
        </CharString>
        <CharString name="kgreenlandic">
          -87 21 -21 1151 -20 hstem
          83 924 vstem
          375 625 rmoveto
          419 -625 rlineto
          173 hlineto
          -420 602 121 61 216 152 82 185 rlinecurve
          26 53 12 55 3 43 rrcurveto
          -142 hlineto
          -13 -52 -22 -53 -28 -46 -101 -170 -183 -123 -143 -81 1 -1 rcurveline
          -293 -625 6 callsubr
          153 1151 rlineto
          -147 hlineto
          endchar
        </CharString>
        <CharString name="l">
          -547 3 1634 hstem
          133 371 vstem
          133 3 -43 callsubr
          endchar
        </CharString>
        <CharString name="lacute">
          -547 21 -21 1524 -20 171 -21 hstemhm
          133 357 -106 373 hintmask 11010000
          133 hmoveto
          7 callgsubr
          208 1524 rlineto
          -148 hlineto
          hintmask 00101000
          99 79 -93 callgsubr
          endchar
        </CharString>
        <CharString name="lcaron">
          -317 5 1634 -623 642 hstemhm
          133 371 226 139 hintmask 10100000
          133 5 -43 callsubr
          hintmask 01010000
          385 -623 -76 callgsubr
        </CharString>
        <CharString name="lcommaaccent">
          -547 -539 -21 563 1634 hstemhm
          133 371 -335 145 hintmask 10010000
          101 -143 -100 callgsubr
          hintmask 01100000
          -62 55 -43 callsubr
          endchar
        </CharString>
        <CharString name="ldot">
          -264 3 1634 -988 3 callgsubr
          hstemhm
          133 371 123 210 hintmask 10010000
          133 19 callsubr
          271 -896 -49 callsubr
          hintmask 00101000
          -7 callgsubr
          hintmask 01001000
          -14 callsubr
        </CharString>
        <CharString name="less">
          258 176 1148 hstem
          197 1023 vstem
          197 702 rmoveto
          888 -526 15 135 -732 432 833 432 19 149 -1011 -524 rlineto
          endchar
        </CharString>
        <CharString name="lessequal">
          258 -1 114 hstem
          139 1065 vstem
          199 700 rmoveto
          894 -454 16 139 -691 342 770 336 16 141 -999 -445 rlineto
          -66 -760 rmoveto
          948 hlineto
          14 114 rlineto
          -948 hlineto
          endchar
        </CharString>
        <CharString name="lira">
          364 701 168 hstem
          48 1279 vstem
          48 45 rmoveto
          -43 34 -17 32 69 88 52 56 45 vhcurveto
          -27 130 171 -91 230 hhcurveto
          403 77 203 145 113 -58 94 -77 64 hvcurveto
          -119 -91 rlineto
          52 -31 44 -77 -76 vvcurveto
          -137 -94 -99 -247 -178 -150 63 27 -99 vhcurveto
          80 117 36 113 32 192 rrcurveto
          390 hlineto
          15 106 rlineto
          -386 hlineto
          29 168 rlineto
          400 hlineto
          14 106 rlineto
          -395 hlineto
          1 7 rlineto
          352 61 129 103 165 hhcurveto
          112 79 -47 -29 26 hvcurveto
          63 104 rlineto
          69 -63 -118 11 -76 hhcurveto
          -324 -165 -277 -288 -43 hvcurveto
          -1 -5 rlineto
          -252 hlineto
          -14 -106 rlineto
          248 hlineto
          -29 -168 rlineto
          -262 hlineto
          -15 -106 rlineto
          259 hlineto
          -18 -107 -13 -95 -30 -146 -67 -54 rlinecurve
          -136 -27 -85 -62 -59 vvcurveto
          endchar
        </CharString>
        <CharString name="logicalnot">
          260 718 117 hstem
          213 973 vstem
          213 718 rmoveto
          826 hlineto
          -47 -396 rlineto
          134 hlineto
          60 513 rlineto
          -960 hlineto
          endchar
        </CharString>
        <CharString name="lozenge">
          65 21 -21 hstem
          57 1071 vstem
          586 hmoveto
          11 hlineto
          531 760 rlineto
          13 vlineto
          -532 743 rlineto
          -8 hlineto
          -531 -743 rlineto
          -13 vlineto
          533 -539 rmoveto
          -368 543 rlineto
          6 vlineto
          368 528 rlineto
          3 hlineto
          371 -528 rlineto
          -3 vlineto
          -371 -546 rlineto
          endchar
        </CharString>
        <CharString name="lslash">
          -547 1161 -20 hstem
          61 534 vstem
          133 3 45 callsubr
          132 973 181 72 rlineto
          113 vlineto
          -165 -68 74 544 rlineto
          -148 hlineto
          -83 -608 -212 -87 rlineto
          -105 vlineto
          196 77 rlineto
          endchar
        </CharString>
        <CharString name="m">
          672 1019 137 -16 -20 hstemhm
          866 150 481 152 hintmask 00000000
          hintmask 10110000
          -75 callsubr
          hintmask 01110000
          28 253 rlineto
          -141 hlineto
          endchar
        </CharString>
        <CharString name="macron">
          -496 1434 114 hstem
          46 514 vstem
          46 1434 -68 callgsubr
          endchar
        </CharString>
        <CharString name="macron.cap">
          -496 1748 114 hstem
          44 514 vstem
          44 -1 callsubr
          endchar
        </CharString>
        <CharString name="minus">
          -5 callgsubr
        </CharString>
        <CharString name="minute">
          -487 1190 592 hstem
          301 290 vstem
          301 1190 14 callsubr
          endchar
        </CharString>
        <CharString name="mu">
          -75 callgsubr
        </CharString>
        <CharString name="multiply">
          260 328 876 hstem
          244 939 vstem
          323 328 rmoveto
          382 360 294 -359 101 95 -310 340 393 346 -79 94 -382 -363 -293 358 -101 -95 309 -339 -393 -342 rlineto
          endchar
        </CharString>
        <CharString name="n">
          84 46 callgsubr
          -16 -20 hstemhm
          909 151 41 callsubr
          93 3 -102 callsubr
          hintmask 01100000
          -13 callgsubr
          endchar
        </CharString>
        <CharString name="nacute">
          84 46 callgsubr
          93 455 hstemhm
          573 423 -87 151 hintmask 01100000
          636 1249 -93 callsubr
          hintmask 00000000
          -480 -1301 -102 callsubr
          hintmask 10010000
          -13 callgsubr
          endchar
        </CharString>
        <CharString name="nbspace">
          -625 endchar
        </CharString>
        <CharString name="ncaron">
          84 46 callgsubr
          42 callgsubr
          382 712 -185 151 hintmask 01100000
          624 1285 -88 callsubr
          hintmask 00000000
          -289 -1610 -102 callsubr
          hintmask 10010000
          -13 callgsubr
          endchar
        </CharString>
        <CharString name="ncommaaccent">
          84 -539 -21 1578 138 hstemhm
          452 145 312 151 hintmask 10100000
          384 -143 -100 callgsubr
          hintmask 00000000
          -385 55 -102 callsubr
          hintmask 01010000
          -13 callgsubr
          endchar
        </CharString>
        <CharString name="nine">
          134 151 116 788 106 hstem
          139 151 648 150 vstem
          205 -341 rmoveto
          34 -89 rlineto
          492 137 357 444 506 vvcurveto
          273 -133 231 -272 -352 -192 -329 -292 -197 105 -192 277 178 109 87 63 61 vhcurveto
          -100 -286 -244 -247 -320 -109 rrcurveto
          351 608 rmoveto
          -159 -107 101 193 202 107 292 252 193 96 -159 -225 -87 -12 -65 -18 -76 hvcurveto
          -51 -45 -109 -125 -198 hhcurveto
          endchar
        </CharString>
        <CharString name="notequal">
          -47 21 -21 358 120 389 120 hstemhm
          99 898 -822 732 hintmask 10001000
          175 hmoveto
          121 hlineto
          611 1324 rlineto
          -121 hlineto
          hintmask 01110000
          -617 -457 -5 callsubr
          -83 -629 -5 callsubr
          endchar
        </CharString>
        <CharString name="ntilde">
          84 46 callgsubr
          -16 -20 259 27 callgsubr
          293 764 -148 151 hintmask 00000000
          hintmask 10000100
          93 3 -102 callsubr
          hintmask 01000100
          -13 callgsubr
          hintmask 00000000
          114 276 rmoveto
          hintmask 00101000
          2 callsubr
          hintmask 00111000
          -81 callsubr
          hintmask 00101000
          -22 callsubr
        </CharString>
        <CharString name="numbersign">
          283 21 -21 365 98 463 98 hstem
          112 1195 vstem
          267 hmoveto
          124 hlineto
          62 365 rlineto
          390 hlineto
          -53 -365 rlineto
          123 hlineto
          57 365 rlineto
          239 hlineto
          6 98 rlineto
          -230 hlineto
          74 463 rlineto
          242 hlineto
          6 98 rlineto
          -233 hlineto
          55 333 rlineto
          -127 hlineto
          -56 -333 rlineto
          -388 hlineto
          51 333 rlineto
          -126 hlineto
          -53 -333 rlineto
          -232 hlineto
          -6 -98 rlineto
          222 hlineto
          -72 -463 rlineto
          -224 hlineto
          -6 -98 rlineto
          214 hlineto
          143 98 rmoveto
          73 463 rlineto
          388 hlineto
          -72 -463 rlineto
          endchar
        </CharString>
        <CharString name="o">
          -33 callgsubr
          hstem
          98 154 627 156 vstem
          -91 callsubr
          endchar
        </CharString>
        <CharString name="oacute">
          -33 callgsubr
          93 455 10 callgsubr
          319 423 -115 156 hintmask 00101000
          634 1249 -93 callsubr
          hintmask 11010100
          -473 -860 -105 callsubr
          endchar
        </CharString>
        <CharString name="obreve">
          -33 callgsubr
          149 112 10 callgsubr
          118 104 405 156 hintmask 11010100
          -91 callsubr
          hintmask 00101000
          414 858 -104 callgsubr
          endchar
        </CharString>
        <CharString name="ocircumflex">
          -33 callgsubr
          119 435 10 callgsubr
          99 683 -155 156 hintmask 00101000
          410 1275 -89 callgsubr
          hintmask 11010100
          -253 -890 -105 callsubr
          endchar
        </CharString>
        <CharString name="odieresis">
          -33 callgsubr
          254 213 10 callgsubr
          124 27 callsubr
          -121 156 hintmask 00000000
          hintmask 00101100
          883 1410 -97 callgsubr
          hintmask 11010010
          -364 -966 -105 callsubr
          endchar
        </CharString>
        <CharString name="oe">
          657 -16 112 -112 -53 callgsubr
          10 callgsubr
          574 158 562 150 hintmask 00000000
          hintmask 10111110
          98 443 rmoveto
          -291 5 133 -168 253 hhcurveto
          157 133 78 121 98 hvcurveto
          -116 57 107 -83 174 -55 callgsubr
          -42 86 rlineto
          hintmask 01111110
          -115 -115 -124 -55 -110 hhcurveto
          -212 -44 4 callgsubr
          8 hvcurveto
          230 12 482 120 331 vvcurveto
          141 -89 109 -191 -171 -144 -79 -128 -104 vhcurveto
          136 -59 -115 71 -163 hhcurveto
          hintmask 10111110
          -336 -232 -354 -359 6 hvcurveto
          890 107 rmoveto
          228 21 151 265 224 hhcurveto
          99 63 -46 -104 -210 -333 -126 -225 -7 hvcurveto
          -736 -105 rmoveto
          266 -5 133 332 256 hhcurveto
          145 75 -97 -172 18 hvcurveto
          3 -47 -31 -87 -18 -97 -2 -102 rlinecurve
          -1 -18 0 -17 1 -17 rrcurveto
          -160 -56 -106 -133 -152 hhcurveto
          -171 -86 126 223 -3 hvcurveto
          endchar
        </CharString>
        <CharString name="ogonek">
          -623 -430 113 338 -21 hstem
          10 148 vstem
          265 hmoveto
          -87 -49 -168 -103 -138 vvcurveto
          -58 46 -82 129 -10 callsubr
          -39 -36 20 52 91 150 102 79 52 hvcurveto
          -45 46 rlineto
          endchar
        </CharString>
        <CharString name="ograve">
          -33 callgsubr
          93 452 10 callgsubr
          57 409 161 156 hintmask 11010100
          -91 callsubr
          hintmask 00101000
          401 802 -69 callgsubr
        </CharString>
        <CharString name="ohungarumlaut">
          -33 callgsubr
          94 456 10 callgsubr
          132 783 -288 156 hintmask 00101000
          882 1250 -47 callgsubr
          hintmask 11010100
          -286 -848 -105 callsubr
          endchar
        </CharString>
        <CharString name="omacron">
          -33 callgsubr
          278 114 10 callgsubr
          144 514 -31 156 hintmask 00101000
          396 1434 -68 callgsubr
          hintmask 11010100
          -302 -1104 -105 callsubr
          endchar
        </CharString>
        <CharString name="one">
          -199 21 -21 1162 -20 hstem
          183 484 vstem
          349 hmoveto
          153 hlineto
          165 1143 -68 19 -108 -76 -168 -95 -140 -31 rlinecurve
          18 -98 115 24 98 43 72 29 rlinecurve
          endchar
        </CharString>
        <CharString name="one.numr">
          -141 636 1009 hstem
          258 460 vstem
          438 -38 callsubr
          endchar
        </CharString>
        <CharString name="onehalf">
          1403 -58 109 -30 -21 835 117 578 -20 hstemhm
          694 804 562 146 hintmask 10100100
          463 -38 callsubr
          792 -1438 rmoveto
          35 -75 rlineto
          -42 callgsubr
          hintmask 01011000
          -676 -17 rmoveto
          -18 callsubr
        </CharString>
        <CharString name="onequarter">
          1403 21 -21 171 115 1244 -20 hstemhm
          283 1995 -1584 804 hintmask 01010000
          463 -38 callsubr
          713 -1210 rmoveto
          28 -74 rlineto
          525 hlineto
          -49 -348 rlineto
          -47 callsubr
          hintmask 10101000
          -1207 -1112 rmoveto
          -18 callsubr
        </CharString>
        <CharString name="onesuperior">
          -1110 endchar
        </CharString>
        <CharString name="ordfeminine">
          -256 743 91 664 79 hstem
          104 134 vstem
          343 743 rmoveto
          129 83 77 63 52 hvcurveto
          -26 -140 rlineto
          128 hlineto
          146 826 -78 -21 rlineto
          15 -44 -65 14 -60 hhcurveto
          -291 -1 -213 -279 -257 vvcurveto
          -183 81 -114 158 vhcurveto
          52 91 rmoveto
          -117 -40 83 134 209 143 238 209 32 47 -13 -26 29 hvcurveto
          -85 -495 rlineto
          -57 -53 -87 -73 -78 hhcurveto
          endchar
        </CharString>
        <CharString name="ordmasculine">
          -256 733 96 669 91 hstem
          101 140 478 142 vstem
          422 733 rmoveto
          218 -4 221 174 316 vvcurveto
          215 -124 152 -198 3 vhcurveto
          -203 3 -235 -177 -315 vvcurveto
          -222 142 -142 179 -3 vhcurveto
          7 96 rmoveto
          -111 1 -77 110 173 vvcurveto
          182 101 201 187 2 vhcurveto
          131 1 59 -125 -168 vvcurveto
          -191 -88 -187 -202 1 vhcurveto
          endchar
        </CharString>
        <CharString name="oslash">
          24 -14 113 947 112 hstem
          98 154 627 156 vstem
          -70 callsubr
          endchar
        </CharString>
        <CharString name="oslashacute">
          24 -14 113 947 112 91 455 10 callgsubr
          307 423 -103 156 hintmask 11010100
          -70 callsubr
          hintmask 00101000
          292 1077 -36 callsubr
        </CharString>
        <CharString name="otilde">
          -33 callgsubr
          223 27 callgsubr
          98 154 38 764 -175 156 hintmask 11001010
          -91 callsubr
          hintmask 00000000
          106 969 rmoveto
          hintmask 00100100
          2 callsubr
          hintmask 00110100
          -81 callsubr
          hintmask 00100100
          -22 callsubr
        </CharString>
        <CharString name="p">
          52 -494 -21 499 25 callgsubr
          -16 -20 hstemhm
          902 155 hintmask 00000000
          hintmask 11101000
          -16 callsubr
          hintmask 11011000
          5 callsubr
          hintmask 11101000
          6 callgsubr
          hintmask 11011000
          -63 -67 14 21 -51 hvcurveto
          endchar
        </CharString>
        <CharString name="paragraph">
          254 21 -21 1450 121 -99 80 hstemhm
          161 1167 hintmask 00000000
          hintmask 11010000
          430 hmoveto
          147 hlineto
          188 1450 33 1 183 -3 21 -2 rlinecurve
          -178 -1446 rlineto
          145 hlineto
          hintmask 10110000
          50 421 81 604 50 422 170 25 rcurveline
          hintmask 11010000
          8 80 rlineto
          -240 hlineto
          -102 -89 19 -185 hhcurveto
          -399 -157 -184 -270 5 hvcurveto
          4 -218 150 -120 219 -5 rrcurveto
          endchar
        </CharString>
        <CharString name="parenleft">
          -256 1716 -21 hstem
          221 159 vstem
          221 505 rmoveto
          -513 266 -261 74 -50 vhcurveto
          14 hlineto
          82 48 rlineto
          -84 69 -193 263 449 vvcurveto
          74 7 94 11 83 vhcurveto
          90 538 333 338 91 58 -67 46 rcurveline
          -98 -53 -433 -387 -78 -577 rrcurveto
          -10 -77 -5 -73 -69 vvcurveto
          endchar
        </CharString>
        <CharString name="parenright">
          -256 -288 21 hstem
          484 159 vstem
          643 923 rmoveto
          513 -266 261 -74 50 vhcurveto
          -14 hlineto
          -82 -48 rlineto
          84 -69 193 -263 -449 vvcurveto
          -74 -7 -94 -11 -83 vhcurveto
          -90 -538 -333 -338 -91 -58 67 -46 rcurveline
          98 53 433 387 78 577 rrcurveto
          10 77 5 73 69 vvcurveto
          endchar
        </CharString>
        <CharString name="partialdiff">
          257 -16 124 825 117 509 125 hstem
          171 160 722 162 vstem
          171 451 rmoveto
          -273 11 189 -194 267 hhcurveto
          444 133 433 444 381 -145 442 -490 -112 -156 -30 -72 -95 hvcurveto
          56 -95 rlineto
          39 64 107 33 105 hhcurveto
          370 118 -303 -315 11 hvcurveto
          46 -70 -99 63 -134 hhcurveto
          -326 -264 -219 -380 16 hvcurveto
          160 25 rmoveto
          291 -11 197 166 215 hhcurveto
          149 98 -63 -59 74 hvcurveto
          -304 -10 -68 -399 -323 hhcurveto
          -225 -88 160 208 -8 hvcurveto
          endchar
        </CharString>
        <CharString name="percent">
          801 -11 callsubr
          7 callsubr
          hintmask 1101111111000000
          414 hmoveto
          -48 callsubr
          hintmask 1110111111000000
          -43 callgsubr
        </CharString>
        <CharString name="period">
          -607 -17 3 callgsubr
          hstemhm
          101 210 hintmask 00000000
          hintmask 01100000
          101 75 -37 callgsubr
        </CharString>
        <CharString name="periodcentered">
          -424 630 3 callgsubr
          hstemhm
          243 210 hintmask 00000000
          hintmask 01100000
          243 722 -37 callgsubr
        </CharString>
        <CharString name="perthousand">
          1591 -11 callsubr
          100 123 437 130 hintmask 0110000000110000
          1827 374 rmoveto
          9 callgsubr
          252 157 221 219 172 -81 123 -198 -239 -172 -213 -212 vhcurveto
          123 1 rmoveto
          141 98 189 169 112 58 -82 -125 -139 -87 -201 -170 -115 -65 90 127 vhcurveto
          7 callsubr
          -1536 -375 rmoveto
          -48 callsubr
          hintmask 1101111111000000
          -43 callgsubr
        </CharString>
        <CharString name="peseta">
          332 646 336 113 339 hstem
          129 1371 22 callgsubr
          306 231 167 287 61 hvcurveto
          218 hlineto
          15 113 rlineto
          -219 hlineto
          1 20 1 20 23 vvcurveto
          265 -4 -164 125 -289 -108 -103 -17 -111 hhcurveto
          -88 hlineto
          -55 -436 rlineto
          -217 hlineto
          -15 -113 rlineto
          217 hlineto
          -123 -981 30 callgsubr
          224 107 -98 -192 -3 hvcurveto
          -17 -1 -16 -1 -16 vhcurveto
          -618 hlineto
          -14 -113 rmoveto
          616 hlineto
          -49 -217 -146 -116 -244 40 callgsubr
        </CharString>
        <CharString name="pi">
          446 -16 131 -117 -21 1024 140 hstemhm
          858 155 hintmask 00000000
          hintmask 01110000
          121 70 rmoveto
          101 -93 58 13 51 23 38 33 rlinecurve
          88 76 56 78 21 231 86 571 rcurveline
          358 -1 -27 -164 -72 -515 -17 -103 rlinecurve
          hintmask 10110000
          -149 -21 67 -86 136 hhcurveto
          174 131 145 127 23 hvcurveto
          -84 36 rlineto
          -103 -38 -92 -74 -66 hhcurveto
          -49 -36 24 84 6 hvcurveto
          15 85 66 537 22 156 rrcurveto
          46 hlineto
          162 88 55 159 13 hvcurveto
          -108 hlineto
          -56 -19 -43 -17 -90 hhcurveto
          -730 hlineto
          -195 -105 -67 -155 -35 hvcurveto
          87 -42 rlineto
          71 34 71 53 119 hhcurveto
          70 hlineto
          -92 -527 -21 -162 -19 -108 -104 -75 rlinecurve
          hintmask 01110000
          -47 -34 -50 -21 -27 -5 rrcurveto
          endchar
        </CharString>
        <CharString name="plus">
          256 712 121 hstem
          243 912 35 callsubr
          3 41 11 100 1 40 rlinecurve
          131 -5 rlineto
          256 hlineto
          14 121 rlineto
          -255 hlineto
          -135 29 callsubr
          -17 -181 -158 9 rlineto
          -226 21 callsubr
          endchar
        </CharString>
        <CharString name="plusminus">
          256 30 115 567 121 hstem
          172 982 35 callsubr
          2 41 11 99 2 41 rlinecurve
          130 -5 rlineto
          256 hlineto
          14 121 rlineto
          -256 hlineto
          -133 29 callsubr
          -3 -40 -11 -100 -3 -41 rlinecurve
          -159 9 rlineto
          -225 21 callsubr
          -429 -506 rmoveto
          869 hlineto
          13 115 rlineto
          -869 hlineto
          endchar
        </CharString>
        <CharString name="product">
          499 1396 126 hstem
          335 170 637 170 vstem
          335 -170 rmoveto
          170 1566 637 -1566 170 1566 196 126 -1369 -126 196 hlineto
          endchar
        </CharString>
        <CharString name="q">
          36 -486 -21 491 116 946 110 4 -20 -2 callsubr
          hintmask 00000000
          hintmask 11101000
          397 -16 rmoveto
          165 139 116 105 75 hvcurveto
          -24 -132 -78 -580 rlineto
          -21 callgsubr
          hintmask 11011000
          221 1667 rlineto
          hintmask 11101000
          -121 -38 rlineto
          19 -61 -78 15 -64 hhcurveto
          -438 -202 -426 -314 -257 101 -175 217 hvcurveto
          26 116 rmoveto
          -114 -76 100 234 272 161 340 302 62 65 -14 -21 51 hvcurveto
          -63 -469 -3 -25 -6 -73 -7 -74 rlinecurve
          -104 -61 -145 -166 -166 hhcurveto
          endchar
        </CharString>
        <CharString name="question">
          -90 -17 3 callgsubr
          1673 123 hstemhm
          281 146 -74 209 288 139 hintmask 00000000
          hintmask 01110100
          364 470 rmoveto
          13 -1 98 38 rlineto
          -16 39 -32 70 60 260 562 -33 424 vvcurveto
          211 -112 241 -388 -79 -95 -23 -30 -29 vhcurveto
          -22 -109 rlineto
          26 69 58 13 88 hhcurveto
          180 191 -99 -248 -30 -3 -39 -9 -29 hvcurveto
          -22 -86 -133 -73 -111 -57 rrcurveto
          -185 -98 -106 -82 -125 vvcurveto
          -91 38 -85 45 -44 vhcurveto
          hintmask 01101100
          -11 -395 rmoveto
          -57 -2 40 -35 51 hhcurveto
          73 46 45 83 1 hvcurveto
          hintmask 10101100
          52 2 -25 40 -66 hhcurveto
          hintmask 01101100
          -73 -46 -58 -70 -1 hvcurveto
          endchar
        </CharString>
        <CharString name="questiondown">
          -82 -366 123 1453 220 hstemhm
          92 139 288 209 -74 147 hintmask 00000000
          hintmask 11110000
          608 1210 rmoveto
          73 46 57 70 1 hvcurveto
          58 2 -40 35 -51 hhcurveto
          -73 -46 -45 -83 -1 hvcurveto
          -52 -2 26 -40 65 hhcurveto
          hintmask 11101000
          -516 -1125 rmoveto
          -211 112 -240 388 79 95 23 30 29 vhcurveto
          22 109 rlineto
          -26 -68 -59 -13 -88 hhcurveto
          -180 -191 99 248 29 3 40 9 29 hvcurveto
          22 85 133 74 111 57 rrcurveto
          186 98 106 82 125 vvcurveto
          90 -38 86 -45 44 vhcurveto
          -14 1 -98 -38 rlineto
          16 -39 32 -71 -59 -261 -562 33 -424 vvcurveto
          endchar
        </CharString>
        <CharString name="quotedbl">
          -107 966 721 hstemhm
          240 262 217 262 hintmask 11000000
          240 966 8 callgsubr
          hintmask 10100000
          391 -721 8 callgsubr
          endchar
        </CharString>
        <CharString name="quotedblbase">
          7 -458 21 -5 21 hstemhm
          341 165 314 165 41 callsubr
          336 292 -58 callsubr
          hintmask 00000000
          479 hmoveto
          -30 callsubr
          hintmask 10010000
          -18 callgsubr
          hintmask 01010000
          -63 callgsubr
          endchar
        </CharString>
        <CharString name="quotedblleft">
          20 1660 -21 37 -21 hstemhm
          192 165 314 165 hintmask 00000000
          hintmask 01010000
          841 926 rmoveto
          15 callgsubr
          hintmask 10010000
          22 callsubr
          hintmask 01010000
          -27 callgsubr
          hintmask 00000000
          -479 hmoveto
          15 callgsubr
          hintmask 01100000
          22 callsubr
          hintmask 10100000
          -27 callgsubr
          endchar
        </CharString>
        <CharString name="quotedblright">
          18 981 21 -5 21 hstemhm
          514 165 314 165 hintmask 00000000
          hintmask 10010000
          988 1731 -2 callgsubr
          hintmask 01010000
          -18 callgsubr
          hintmask 10010000
          -63 callgsubr
          hintmask 00000000
          -479 hmoveto
          -30 callsubr
          hintmask 10100000
          -18 callgsubr
          hintmask 01100000
          -63 callgsubr
          endchar
        </CharString>
        <CharString name="quoteleft">
          -459 1660 -21 37 -21 hstemhm
          192 165 hintmask 00000000
          hintmask 01100000
          362 926 rmoveto
          15 callgsubr
          hintmask 10100000
          22 callsubr
          hintmask 01100000
          -27 callgsubr
          endchar
        </CharString>
        <CharString name="quotereversed">
          -459 892 823 hstem
          186 157 vstem
          384 892 rmoveto
          78 67 3 16 -67 59 -88 155 45 191 rlinecurve
          19 78 54 85 80 32 4 32 rcurveline
          -66 108 -90 -12 -116 -114 -36 -137 rlinecurve
          -69 -277 141 -190 108 -93 rrcurveto
          endchar
        </CharString>
        <CharString name="quoteright">
          -443 981 21 -5 21 hstemhm
          481 165 41 callsubr
          476 1731 -58 callsubr
          endchar
        </CharString>
        <CharString name="quotesinglbase">
          -472 -458 21 -5 21 hstemhm
          341 165 41 callsubr
          336 292 -58 callsubr
          endchar
        </CharString>
        <CharString name="quotesingle">
          -586 966 721 hstem
          240 262 vstem
          240 966 8 callgsubr
          endchar
        </CharString>
        <CharString name="r">
          32 callsubr
          -16 -20 23 13 hstemhm
          93 713 hintmask 00000000
          hintmask 11001000
          93 hmoveto
          -21 callgsubr
          91 680 rlineto
          191 77 162 127 110 hhcurveto
          47 26 -4 -9 19 hvcurveto
          hintmask 10011000
          33 158 rlineto
          hintmask 11001000
          -27 callsubr
          hintmask 10101000
          11 callsubr
        </CharString>
        <CharString name="racute">
          32 callsubr
          -13 13 93 455 hstemhm
          93 713 -550 423 hintmask 00010100
          319 1249 -93 callsubr
          hintmask 00000000
          -163 -1304 -29 callgsubr
          hintmask 11001000
          33 158 rlineto
          hintmask 10101000
          -27 callsubr
          hintmask 11001000
          11 callsubr
        </CharString>
        <CharString name="radical">
          462 -354 2224 hstem
          86 1490 vstem
          154 490 rmoveto
          142 81 410 -925 rlineto
          135 hlineto
          735 2224 rlineto
          -161 hlineto
          -649 -2027 -356 871 rlineto
          -141 hlineto
          -183 -112 rlineto
          endchar
        </CharString>
        <CharString name="rcaron">
          32 callsubr
          -13 13 42 callgsubr
          65 712 -684 713 hintmask 00011000
          307 1285 -88 callsubr
          hintmask 00000000
          28 -1613 -29 callgsubr
          hintmask 11000100
          33 158 rlineto
          hintmask 10100100
          -27 callsubr
          hintmask 11000100
          11 callsubr
        </CharString>
        <CharString name="rcommaaccent">
          -332 -539 -21 581 -21 998 158 -13 13 hstemhm
          93 713 -701 145 hintmask 10000100
          37 -143 -100 callgsubr
          hintmask 00000000
          -38 52 -29 callgsubr
          hintmask 01101000
          33 158 rlineto
          hintmask 01011000
          -27 callsubr
          hintmask 01101000
          11 callsubr
        </CharString>
        <CharString name="registered">
          951 90 100 648 99 371 102 276 97 hstem
          196 110 426 136 385 141 373 -46 callgsubr
          426 -471 rmoveto
          136 371 hlineto
          36 103 0 1 19 hvcurveto
          89 -30 48 -112 44 -92 25 -53 21 -44 29 -40 156 -1 rcurveline
          -49 76 -21 34 -24 44 -45 85 -44 100 -74 52 rrcurveto
          157 35 56 114 141 vvcurveto
          146 -107 116 -241 -104 -80 -7 1 -70 vhcurveto
          -60 hlineto
          136 -464 rmoveto
          359 vlineto
          39 6 44 2 59 1 rrcurveto
          190 4 53 -76 -105 vvcurveto
          -127 -70 -66 -149 -1 vhcurveto
          -26 -118 1 2 -22 hvcurveto
          endchar
        </CharString>
        <CharString name="ring">
          -387 1258 83 356 84 hstem
          99 33 callsubr
          vstem
          378 1258 -61 callsubr
          endchar
        </CharString>
        <CharString name="ring.cap">
          -387 1483 82 351 84 hstem
          54 33 callsubr
          vstem
          333 1483 -62 callgsubr
        </CharString>
        <CharString name="s">
          -238 -44 callgsubr
          hstem
          173 143 265 148 vstem
          45 48 -101 callsubr
          endchar
        </CharString>
        <CharString name="sacute">
          -238 -44 callgsubr
          93 455 42 callsubr
          134 423 -292 148 hintmask 00101000
          513 1249 -93 callsubr
          hintmask 11010100
          -405 -1256 -101 callsubr
          endchar
        </CharString>
        <CharString name="scaron">
          -238 -44 callgsubr
          129 395 42 callsubr
          -57 712 -390 148 hintmask 00101000
          501 1285 -88 callsubr
          hintmask 11010100
          -214 -1565 -101 callsubr
          endchar
        </CharString>
        <CharString name="scircumflex">
          -238 -44 callgsubr
          119 435 42 callsubr
          -86 683 -332 148 hintmask 00101000
          289 1275 -89 callgsubr
          hintmask 11010100
          -185 -1286 -101 callsubr
          endchar
        </CharString>
        <CharString name="second">
          -99 1190 592 hstemhm
          301 290 98 290 hintmask 11000000
          301 1190 14 callsubr
          hintmask 10100000
          254 -592 14 callsubr
          endchar
        </CharString>
        <CharString name="section">
          84 -186 119 1624 116 hstemhm
          202 159 -119 158 488 156 -110 157 hintmask 00000000
          hintmask 11011000
          128 -65 rmoveto
          -45 45 159 -76 176 hhcurveto
          294 247 125 250 -5 hvcurveto
          -2 77 -37 61 -56 49 rrcurveto
          hintmask 11010100
          88 70 55 91 -1 129 -3 186 -178 108 -174 78 -203 94 -140 56 7 170 rrcurveto
          131 6 154 68 168 hhcurveto
          104 153 -33 -72 57 hvcurveto
          48 116 rlineto
          43 -50 -110 62 -192 hhcurveto
          -269 -230 -113 -217 3 hvcurveto
          2 -120 60 -88 84 -69 rrcurveto
          hintmask 11101000
          -114 -54 -74 -79 2 -123 3 -217 187 -115 187 -74 rrcurveto
          196 -76 113 -66 -108 vvcurveto
          -171 -193 -50 -185 -140 -152 62 56 -47 vhcurveto
          498 473 rmoveto
          -193 88 -123 58 8 164 3 74 49 58 69 35 54 -32 57 -26 56 -24 rrcurveto
          hintmask 11010100
          212 -94 73 -79 -107 vvcurveto
          -88 -39 -63 -51 -42 vhcurveto
          hintmask 11101000
          -55 30 -61 25 -59 23 rrcurveto
          endchar
        </CharString>
        <CharString name="semicolon">
          -607 -480 -21 1316 3 callgsubr
          hstemhm
          184 159 -159 210 hintmask 10010000
          -29 callsubr
          hintmask 00000000
          88 739 -49 callsubr
          hintmask 00101000
          -7 callgsubr
          hintmask 01001000
          -14 callsubr
        </CharString>
        <CharString name="seven">
          -47 1022 121 -34 35 hstemhm
          98 935 41 callsubr
          278 -264 rmoveto
          137 -51 rlineto
          hintmask 01100000
          618 1424 rlineto
          hintmask 10100000
          -26 35 rlineto
          -883 hlineto
          -26 -123 764 3 rlineto
          endchar
        </CharString>
        <CharString name="six">
          134 -16 106 780 116 hstem
          149 151 647 151 vstem
          149 488 rmoveto
          -273 130 -231 273 352 194 329 292 194 -95 187 -261 -187 -121 -83 -59 -66 vhcurveto
          99 289 244 240 318 111 -33 88 rcurveline
          -492 -137 -355 -441 -506 vvcurveto
          151 -14 rmoveto
          87 10 65 18 76 vhcurveto
          49 46 121 119 211 hhcurveto
          145 96 -98 -188 -202 -109 -292 -252 -193 -93 159 225 hvcurveto
          endchar
        </CharString>
        <CharString name="slash">
          -14 callgsubr
        </CharString>
        <CharString name="space">
          -625 endchar
        </CharString>
        <CharString name="sterling">
          258 -25 108 -77 -21 766 100 586 108 hstemhm
          1100 157 hintmask 00000000
          hintmask 01111000
          15 57 rmoveto
          -60 -9 36 -12 32 hhcurveto
          70 88 53 55 44 hvcurveto
          hintmask 10111000
          -41 132 168 -77 231 hhcurveto
          375 74 196 144 1 hvcurveto
          1 113 -58 95 -77 64 -119 -91 rcurveline
          52 -33 44 -75 -76 vvcurveto
          -137 -89 -92 -223 -178 -143 71 27 -99 vhcurveto
          87 126 26 111 36 221 20 112 rcurveline
          333 hlineto
          13 100 rlineto
          -329 hlineto
          24 131 rlineto
          329 55 156 126 143 hhcurveto
          113 73 -46 -34 24 hvcurveto
          71 107 rlineto
          68 -64 -81 13 -113 hhcurveto
          -324 1 -164 -278 -44 -288 -22 -129 rcurveline
          -190 hlineto
          -14 -100 rlineto
          187 hlineto
          -44 -263 -15 -96 -36 -145 -67 -54 rlinecurve
          hintmask 01111000
          -82 -117 -78 -58 -8 hvcurveto
          endchar
        </CharString>
        <CharString name="summation">
          419 -170 119 1447 126 -63 63 hstemhm
          227 1075 hintmask 00000000
          hintmask 11010000
          227 -128 rmoveto
          20 -42 rlineto
          1055 119 -843 hlineto
          505 733 -517 714 rlineto
          840 126 -1036 hlineto
          hintmask 10110000
          -23 -63 560 -781 rlineto
          endchar
        </CharString>
        <CharString name="t">
          -371 -16 119 918 119 hstem
          166 154 vstem
          166 156 -88 callgsubr
          endchar
        </CharString>
        <CharString name="tbar">
          -371 -16 119 534 100 284 119 hstem
          166 154 vstem
          166 156 rmoveto
          -114 64 -58 111 113 144 88 48 40 vhcurveto
          -20 84 rlineto
          -31 -39 -116 -70 -64 hhcurveto
          -65 -14 57 59 32 7 44 9 67 hvcurveto
          36 275 rlineto
          293 hlineto
          12 100 rlineto
          -292 hlineto
          38 284 rlineto
          290 hlineto
          18 119 rlineto
          -291 hlineto
          36 279 rlineto
          -126 hlineto
          -56 -279 -127 -1 -31 -118 rlineto
          135 hlineto
          -36 -284 rlineto
          -140 hlineto
          -12 -100 rlineto
          139 hlineto
          -44 -347 rlineto
          9 callsubr
          endchar
        </CharString>
        <CharString name="tcaron">
          -371 -16 119 918 119 108 642 hstemhm
          166 154 400 139 hintmask 11010000
          166 156 -88 callgsubr
          hintmask 00101000
          565 1092 -76 callgsubr
        </CharString>
        <CharString name="thorn">
          49 -495 -21 500 25 callgsubr
          hstem
          906 154 vstem
          95 2 rmoveto
          -75 -518 rlineto
          145 hlineto
          62 416 15 108 rlineto
          -13 56 66 -11 55 -74 callgsubr
          endchar
        </CharString>
        <CharString name="three">
          -10 -327 117 617 74 538 141 hstemhm
          752 174 -155 169 hintmask 00000000
          hintmask 11110000
          55 -200 rmoveto
          -13 -115 rlineto
          -8 65 53 -4 50 hhcurveto
          350 366 195 308 162 -117 143 -237 hvcurveto
          hintmask 11101000
          187 67 181 150 181 vvcurveto
          196 -157 85 -170 -214 -173 -99 -65 -67 vhcurveto
          47 -112 rlineto
          65 89 112 70 154 hhcurveto
          134 76 -70 -98 -199 -228 -103 -255 -62 hvcurveto
          -13 -131 25 8 126 31 27 12 rlinecurve
          hintmask 11110000
          218 -2 81 -102 -140 vvcurveto
          -235 -271 -138 -282 -38 -55 4 6 -51 vhcurveto
          endchar
        </CharString>
        <CharString name="three.numr">
          -45 531 100 427 69 409 108 hstemhm
          754 158 -156 169 hintmask 00000000
          hintmask 11110000
          132 -6 callgsubr
          hintmask 11101000
          -41 callgsubr
          hintmask 11110000
          4 callsubr
          endchar
        </CharString>
        <CharString name="threequarters">
          1403 21 -21 171 115 245 100 427 69 403 -20 26 108 hstemhm
          730 804 -790 158 -156 169 7 callsubr
          hintmask 0111010100000000
          122 -6 callgsubr
          hintmask 0111010010000000
          -41 callgsubr
          hintmask 0111010100000000
          4 callsubr
          1155 -441 rmoveto
          28 -74 rlineto
          525 hlineto
          -49 -348 rlineto
          -47 callsubr
          hintmask 1000101000000000
          -1171 -1112 rmoveto
          -18 callsubr
        </CharString>
        <CharString name="threesuperior">
          -1110 endchar
        </CharString>
        <CharString name="tilde">
          -295 1379 27 callgsubr
          9 764 41 callsubr
          77 1416 rmoveto
          hintmask 11100000
          2 callsubr
          hintmask 10100000
          -81 callsubr
          hintmask 11100000
          -22 callsubr
        </CharString>
        <CharString name="tilde.cap">
          -297 1693 28 callgsubr
          30 764 41 callsubr
          97 1733 rmoveto
          hintmask 11100000
          1 callsubr
          hintmask 10100000
          -80 callgsubr
          hintmask 11100000
          12 callgsubr
        </CharString>
        <CharString name="trademark">
          1001 1419 111 -70 70 hstemhm
          1793 135 41 callsubr
          917 754 rmoveto
          124 hlineto
          102 532 rlineto
          hintmask 01100000
          31 174 44 -167 148 -547 rlineto
          98 hlineto
          303 605 54 107 -14 -220 -27 -484 rlineto
          133 hlineto
          hintmask 10100000
          32 776 rlineto
          -218 hlineto
          -292 -619 -38 147 -120 472 rlineto
          -208 hlineto
          -715 -777 rmoveto
          131 1 90 665 rlineto
          273 hlineto
          13 111 rlineto
          -666 hlineto
          -17 -111 rlineto
          266 hlineto
          endchar
        </CharString>
        <CharString name="two">
          139 0 117 921 122 hstem
          867 168 vstem
          87 hmoveto
          950 hlineto
          21 132 -781 -29 rlineto
          354 176 404 250 298 vvcurveto
          175 -112 158 -260 -212 -173 -113 -85 -81 vhcurveto
          56 -87 rlineto
          63 76 129 100 163 hhcurveto
          167 79 -81 -146 -239 -415 -279 -390 -191 hvcurveto
          endchar
        </CharString>
        <CharString name="two.numr">
          58 637 109 784 117 hstem
          867 146 vstem
          212 637 rmoveto
          -42 callgsubr
          endchar
        </CharString>
        <CharString name="twosuperior">
          -1110 endchar
        </CharString>
        <CharString name="u">
          -51 callsubr
          -16 callgsubr
          hintmask 00000000
          hintmask 10110000
          -71 callgsubr
          hintmask 01110000
          -29 -262 rlineto
          138 hlineto
          152 1140 rlineto
          -149 hlineto
          -95 -725 rlineto
          hintmask 10110000
          -102 callgsubr
          endchar
        </CharString>
        <CharString name="uacute">
          -51 callsubr
          129 455 -16 callgsubr
          309 423 hintmask 00010100
          637 1249 -93 callsubr
          hintmask 00000000
          -461 -1038 -77 callsubr
          hintmask 10101000
          -29 -262 rlineto
          138 hlineto
          152 1140 rlineto
          -149 hlineto
          -95 -725 rlineto
          hintmask 01101000
          -102 callgsubr
          endchar
        </CharString>
        <CharString name="ubreve">
          -51 callsubr
          185 112 -16 callgsubr
          108 104 -98 callgsubr
          556 1039 -104 callgsubr
          endchar
        </CharString>
        <CharString name="ucircumflex">
          -51 callsubr
          155 435 -16 callgsubr
          89 683 hintmask 00010100
          413 1275 -89 callgsubr
          hintmask 00000000
          -241 -1068 -77 callsubr
          hintmask 10101000
          -29 -262 rlineto
          138 hlineto
          152 1140 rlineto
          -149 hlineto
          -95 -725 rlineto
          hintmask 01101000
          -102 callgsubr
          endchar
        </CharString>
        <CharString name="udieresis">
          -51 callsubr
          290 213 -16 callgsubr
          114 27 callsubr
          hintmask 00000000
          hintmask 00010110
          886 1410 -97 callgsubr
          hintmask 00000000
          -352 -1144 -77 callsubr
          hintmask 10101000
          -29 -262 rlineto
          138 hlineto
          152 1140 rlineto
          -149 hlineto
          -95 -725 rlineto
          hintmask 01101000
          -102 callgsubr
          endchar
        </CharString>
        <CharString name="ugrave">
          -51 callsubr
          129 452 -16 callgsubr
          47 409 -98 callgsubr
          543 983 -69 callgsubr
        </CharString>
        <CharString name="uhungarumlaut">
          -51 callsubr
          130 456 -16 callgsubr
          122 783 -98 callgsubr
          772 984 -47 callgsubr
          endchar
        </CharString>
        <CharString name="umacron">
          -51 callsubr
          314 114 -16 callgsubr
          134 514 -98 callgsubr
          286 1168 -68 callgsubr
          endchar
        </CharString>
        <CharString name="underscore">
          225 -338 115 hstem
          -111 1393 vstem
          -96 -223 rmoveto
          -15 -115 rlineto
          1378 hlineto
          15 115 rlineto
          endchar
        </CharString>
        <CharString name="uni015E">
          -66 -465 126 324 117 -93 -21 1443 116 hstemhm
          187 151 43 131 253 157 hintmask 00000000
          hintmask 11011110
          29 73 rmoveto
          42 -35 144 -48 158 -5 rrcurveto
          6 -39 2 -49 -43 -34 callsubr
          -56 callgsubr
          hvcurveto
          hintmask 10111110
          72 -11 55 -18 42 vhcurveto
          257 24 186 142 -4 257 -4 208 -165 111 -142 93 -162 107 -116 78 5 182 rrcurveto
          201 6 188 40 123 hhcurveto
          108 123 -28 -57 57 hvcurveto
          48 116 rlineto
          34 -48 -100 51 -198 hhcurveto
          -263 -200 -145 -251 5 hvcurveto
          4 -230 183 -122 148 -96 rrcurveto
          156 -101 87 -89 -139 vvcurveto
          hintmask 11011110
          -193 -174 -79 -184 -145 -153 54 40 -38 vhcurveto
          endchar
        </CharString>
        <CharString name="uni015F">
          -238 -465 126 323 113 -85 -21 1053 112 42 callsubr
          14 131 120 148 hintmask 00000000
          hintmask 11011010
          45 48 rmoveto
          hintmask 11011110
          34 -31 120 -30 123 -3 rrcurveto
          6 -38 2 -50 -42 -34 callsubr
          -56 callgsubr
          hvcurveto
          hintmask 10111110
          73 -12 57 -18 42 vhcurveto
          175 24 123 101 173 vvcurveto
          169 -144 98 -95 72 vhcurveto
          hintmask 11011010
          -83 64 -91 60 121 vvcurveto
          104 90 67 144 131 82 -56 -16 12 vhcurveto
          29 140 rlineto
          17 -33 -99 27 -122 hhcurveto
          -203 -174 -104 -198 -165 110 -86 106 -83 hvcurveto
          94 -74 98 -62 -112 vvcurveto
          -121 -103 -54 -131 -131 -101 51 30 -42 vhcurveto
          endchar
        </CharString>
        <CharString name="uni0162">
          12 -465 126 360 24 callsubr
          hstem
          431 131 vstem
          173 -321 rmoveto
          -56 callgsubr
          79 -14 59 -21 43 hvcurveto
          33 -52 callsubr
          -179 -1419 rlineto
          10 hlineto
          8 -40 3 -57 -49 -34 callsubr
          endchar
        </CharString>
        <CharString name="uni0163">
          -371 -465 126 324 118 -97 -21 1036 119 hstemhm
          166 154 -60 131 hintmask 00000000
          hintmask 10111000
          166 156 rmoveto
          -78 29 -51 54 -25 vhcurveto
          hintmask 10110100
          8 -40 3 -59 -49 -34 callsubr
          -56 callgsubr
          70 -11 55 -17 41 hvcurveto
          109 10 128 80 38 45 -20 84 rcurveline
          hintmask 11011000
          -31 -39 -116 -70 -64 hhcurveto
          -65 -14 57 59 32 7 44 9 67 hvcurveto
          87 659 rlineto
          290 hlineto
          18 119 rlineto
          -291 hlineto
          36 279 rlineto
          -126 hlineto
          -56 -279 -127 -1 -31 -118 rlineto
          135 hlineto
          -93 -731 rlineto
          hintmask 10111000
          9 callsubr
          endchar
        </CharString>
        <CharString name="uni01C4">
          -85 callsubr
          hintmask 0101000010000000
          657 1544 -90 callsubr
          endchar
        </CharString>
        <CharString name="uni01C5">
          -84 callgsubr
          hintmask 0101000010000000
          580 1239 -61 callgsubr
        </CharString>
        <CharString name="uni01C6">
          -82 callsubr
          hintmask 01010001
          590 1239 -61 callgsubr
        </CharString>
        <CharString name="uni01C7">
          452 0 26 callgsubr
          12 callsubr
          759 -71 670 hintmask 11100000
          -1 callgsubr
          -59 callgsubr
          hintmask 01010000
          828 -1445 -79 callgsubr
          endchar
        </CharString>
        <CharString name="uni01C8">
          447 -515 104 411 128 1016 -20 305 214 -113 -20 12 callsubr
          759 -146 26 callsubr
          hintmask 01001100
          -1 callgsubr
          -59 callgsubr
          hintmask 10100010
          813 -1471 -94 callgsubr
          hintmask 00010001
          112 285 -104 callsubr
          endchar
        </CharString>
        <CharString name="uni01C9">
          32 -515 104 414 1634 -493 -20 305 214 hstemhm
          133 371 -185 26 callsubr
          hintmask 01001000
          133 3 -43 callsubr
          hintmask 10100100
          356 -1578 -94 callgsubr
          hintmask 00010010
          112 285 -104 callsubr
          endchar
        </CharString>
        <CharString name="uni01CA">
          876 -66 callsubr
          12 callsubr
          1212 -100 670 hintmask 11100000
          -60 callsubr
          hintmask 01010000
          1252 -1445 -79 callgsubr
          endchar
        </CharString>
        <CharString name="uni01CB">
          871 19 callgsubr
          305 214 -113 -20 12 callsubr
          1212 -175 26 callsubr
          hintmask 01001100
          -60 callsubr
          hintmask 10100010
          1237 -1471 -94 callgsubr
          hintmask 00010001
          112 285 -104 callsubr
          endchar
        </CharString>
        <CharString name="uni01CC">
          663 -515 104 1429 138 -16 -20 24 -20 305 214 hstemhm
          909 151 -110 26 callsubr
          hintmask 00000000
          hintmask 01000100
          93 3 -102 callsubr
          hintmask 00100100
          -13 callgsubr
          hintmask 10010010
          1096 -1081 -94 callgsubr
          hintmask 00001001
          112 285 -104 callsubr
          endchar
        </CharString>
        <CharString name="uni01CD">
          -68 callsubr
        </CharString>
        <CharString name="uni01CF">
          -538 -66 callsubr
          104 386 hstemhm
          111 695 -661 344 hintmask 11001000
          -73 callgsubr
          hintmask 00110000
          11 84 -90 callsubr
          endchar
        </CharString>
        <CharString name="uni01D0">
          -39 callsubr
          164 395 hstemhm
          87 712 -666 303 hintmask 11001000
          133 hmoveto
          -83 callgsubr
          hintmask 00110000
          42 144 -61 callgsubr
        </CharString>
        <CharString name="uni01D1">
          -17 -35 callsubr
          67 386 -13 callsubr
          246 695 -67 157 hintmask 11010100
          -80 callsubr
          hintmask 00101000
          124 1515 -90 callsubr
          endchar
        </CharString>
        <CharString name="uni01D2">
          -33 callgsubr
          132 395 10 callgsubr
          128 712 -213 156 hintmask 11010100
          -91 callsubr
          hintmask 00101000
          370 841 -61 callgsubr
        </CharString>
        <CharString name="uni01D3">
          -40 callsubr
          104 386 -12 callgsubr
          188 695 hintmask 11010000
          -89 callsubr
          hintmask 00101000
          580 1192 -90 callsubr
          endchar
        </CharString>
        <CharString name="uni01D4">
          -51 callsubr
          168 395 -16 callgsubr
          118 712 -98 callgsubr
          512 1022 -61 callgsubr
        </CharString>
        <CharString name="uni01F1">
          -85 callsubr
          endchar
        </CharString>
        <CharString name="uni01F2">
          -84 callgsubr
          endchar
        </CharString>
        <CharString name="uni01F3">
          -82 callsubr
          endchar
        </CharString>
        <CharString name="uni01F4">
          -49 callgsubr
          129 -21 28 callsubr
          526 373 hintmask 11101000
          616 -17 -107 callsubr
          hintmask 00010100
          232 1620 -93 callgsubr
          endchar
        </CharString>
        <CharString name="uni0218">
          -66 -539 -21 544 118 1329 116 hstemhm
          187 151 31 145 251 157 hintmask 10001000
          301 -143 -100 callgsubr
          hintmask 01110100
          -366 125 -65 callgsubr
        </CharString>
        <CharString name="uni0219">
          -238 -539 -21 544 113 947 112 42 callsubr
          2 145 118 148 hintmask 10001000
          250 -143 -100 callgsubr
          hintmask 01110100
          -299 100 -101 callsubr
          endchar
        </CharString>
        <CharString name="uni021A">
          12 -539 -21 581 24 callsubr
          hstemhm
          138 1061 -780 145 hintmask 10001000
          351 -143 -20 callgsubr
          -35 52 rmoveto
          150 -52 callsubr
          rlineto
          endchar
        </CharString>
        <CharString name="uni021B">
          -371 -539 -21 544 119 918 119 hstemhm
          166 154 -72 145 hintmask 10001000
          180 -143 -20 callgsubr
          -108 208 -88 callgsubr
          endchar
        </CharString>
        <CharString name="uni02c9">
          -496 1748 114 hstem
          59 514 vstem
          59 -1 callsubr
          endchar
        </CharString>
        <CharString name="uni0394">
          -31 callgsubr
        </CharString>
        <CharString name="uni03A9">
          547 31 callsubr
          150 43 callgsubr
          70 -62 callsubr
        </CharString>
        <CharString name="uni03BC">
          -75 callgsubr
        </CharString>
        <CharString name="uni1E02">
          20 callgsubr
          197 213 hstemhm
          591 201 179 160 -143 151 hintmask 0000011000000000
          675 1707 -97 callsubr
          7 callsubr
          -554 -1707 rmoveto
          70 hlineto
          71 119 -14 77 hhcurveto
          hintmask 0111000100000000
          10 callsubr
          hintmask 1011000100000000
          13 callgsubr
          hintmask 1011000010000000
          35 callgsubr
          hintmask 1010100100000000
          -6 callsubr
          hintmask 1011000010000000
          -72 -91 -3 3 -71 hvcurveto
          hintmask 1010100100000000
          -24 callgsubr
        </CharString>
        <CharString name="uni1E03">
          49 -16 25 callgsubr
          270 214 hstemhm
          734 203 -31 154 hintmask 11001000
          95 2 rmoveto
          84 25 rlineto
          -22 63 100 -21 77 -74 callgsubr
          hintmask 00110000
          561 1297 -104 callsubr
          endchar
        </CharString>
        <CharString name="uni1E0A">
          0 callgsubr
          197 213 hstemhm
          692 201 249 156 hintmask 00001100
          776 1707 -97 callsubr
          hintmask 00000000
          -655 -1707 rmoveto
          -36 callgsubr
          hintmask 01100010
          -85 callgsubr
          hintmask 10100010
          -58 callgsubr
          hintmask 10010010
          -90 callgsubr
          hintmask 10100010
          -33 callsubr
          endchar
        </CharString>
        <CharString name="uni1E0B">
          18 callsubr
          270 214 -2 callsubr
          156 203 hintmask 00000000
          hintmask 10101000
          -35 callgsubr
          hintmask 01101000
          -70 callgsubr
          hintmask 10101000
          -87 callgsubr
          hintmask 00010100
          52 1326 -104 callsubr
          endchar
        </CharString>
        <CharString name="uni1E1E">
          37 callsubr
          178 213 12 callsubr
          972 -472 201 hintmask 00010100
          705 1707 -97 callsubr
          hintmask 11101000
          -584 -1707 rmoveto
          5 callgsubr
          92 725 -24 callsubr
          endchar
        </CharString>
        <CharString name="uni1E1F">
          -415 1 callgsubr
          422 116 -5 -21 72 214 -3 callsubr
          -536 203 hintmask 00001010
          439 1724 -104 callsubr
          hintmask 00000000
          -272 -1724 rmoveto
          -95 callsubr
          hintmask 11010100
          -87 callsubr
          hintmask 11100100
          -12 callsubr
          hintmask 11010100
          -78 callgsubr
        </CharString>
        <CharString name="uni1E20">
          -49 callgsubr
          202 114 28 callsubr
          310 514 hintmask 11101000
          616 -17 -107 callsubr
          hintmask 00010100
          -41 1765 -68 callgsubr
          endchar
        </CharString>
        <CharString name="uni1E21">
          -48 callgsubr
          281 114 -2 callsubr
          214 514 hintmask 11101000
          153 -344 -107 callgsubr
          hintmask 00010100
          24 1337 -68 callgsubr
          endchar
        </CharString>
        <CharString name="uni1E40">
          44 callgsubr
          177 213 hstemhm
          72 1548 -661 201 hintmask 00010100
          1043 1707 -97 callsubr
          hintmask 00000000
          -971 -1707 rmoveto
          30 callsubr
          hintmask 01101000
          39 callgsubr
          hintmask 10101000
          -25 callsubr
        </CharString>
        <CharString name="uni1E41">
          672 1019 137 -16 -20 306 214 hstemhm
          866 150 -105 203 383 152 hintmask 00000000
          hintmask 10010100
          -75 callsubr
          hintmask 01010100
          28 253 rlineto
          -141 hlineto
          hintmask 00101000
          749 286 -104 callsubr
          endchar
        </CharString>
        <CharString name="uni1E44">
          16 callgsubr
          197 213 12 callsubr
          1212 -557 201 hintmask 11010000
          -60 callsubr
          hintmask 00101000
          546 177 -45 callsubr
        </CharString>
        <CharString name="uni1E45">
          84 46 callgsubr
          -16 -20 309 214 hstemhm
          590 203 116 151 hintmask 00000000
          hintmask 10001000
          93 3 -102 callsubr
          hintmask 01001000
          -13 callgsubr
          hintmask 00110000
          429 289 -104 callsubr
          endchar
        </CharString>
        <CharString name="uni1E56">
          32 callgsubr
          197 213 hstemhm
          681 201 132 152 hintmask 00001100
          765 1707 -97 callsubr
          hintmask 00000000
          -644 -1707 rmoveto
          -15 callsubr
          hintmask 11100010
          31 callgsubr
          hintmask 11010010
          -10 callgsubr
          hintmask 11100010
          -63 -1 -98 10 -41 8 rrcurveto
          endchar
        </CharString>
        <CharString name="uni1E57">
          52 -494 -21 499 25 callgsubr
          -16 -20 306 214 hstemhm
          633 203 66 155 hintmask 00000000
          hintmask 11100010
          -16 callsubr
          hintmask 11010010
          5 callsubr
          hintmask 11100010
          6 callgsubr
          hintmask 11010010
          -63 -67 14 21 -51 hvcurveto
          hintmask 00001100
          460 1297 -104 callsubr
          endchar
        </CharString>
        <CharString name="uni1E60">
          -9 callsubr
          160 213 hstemhm
          187 151 263 201 -37 157 hintmask 00101000
          685 1707 -97 callsubr
          hintmask 11010100
          -656 -1634 -65 callgsubr
        </CharString>
        <CharString name="uni1E61">
          -238 -44 callgsubr
          270 214 42 callsubr
          151 203 -89 148 hintmask 11010100
          45 48 -101 callsubr
          hintmask 00101000
          480 1248 -104 callsubr
          endchar
        </CharString>
        <CharString name="uni1E6A">
          12 21 24 callsubr
          178 213 hstemhm
          138 1061 -552 201 hintmask 00101000
          731 1707 -97 callsubr
          hintmask 11010000
          -321 -1707 rmoveto
          150 -52 callsubr
          rlineto
          endchar
        </CharString>
        <CharString name="uni1E6B">
          -371 -16 119 918 119 391 214 hstemhm
          166 154 18 203 hintmask 11010000
          166 156 -88 callgsubr
          hintmask 00101000
          258 1375 -104 callsubr
          endchar
        </CharString>
        <CharString name="uni1E8E">
          -27 -66 callsubr
          197 213 hstemhm
          105 1108 -613 201 hintmask 11010000
          -82 callgsubr
          hintmask 00101000
          206 1122 -45 callsubr
        </CharString>
        <CharString name="uni1E8F">
          -19 callsubr
          309 214 hstemhm
          488 203 144 149 hintmask 11001000
          -103 callgsubr
          hintmask 00110000
          324 1130 -104 callsubr
          endchar
        </CharString>
        <CharString name="uni1E9E">
          346 -23 124 -80 -21 785 91 541 121 hstemhm
          1204 158 hintmask 00000000
          hintmask 01111000
          105 hmoveto
          154 hlineto
          113 838 rlineto
          385 44 227 194 259 hhcurveto
          101 91 -30 -35 56 hvcurveto
          -382 -520 rlineto
          -47 vlineto
          311 125 -113 -200 hvcurveto
          hintmask 10111000
          -246 -180 -125 -176 -135 -108 40 46 -51 vhcurveto
          -80 -124 rlineto
          -47 71 93 -39 213 hhcurveto
          329 182 243 270 250 -210 136 -192 hvcurveto
          368 493 12 77 rlineto
          -90 -85 92 -251 hhcurveto
          -413 -237 -298 -487 -58 hvcurveto
          endchar
        </CharString>
        <CharString name="uni20A6">
          708 617 293 hstem
          65 1792 vstem
          416 hmoveto
          68 505 rlineto
          541 hlineto
          274 -505 rlineto
          130 hlineto
          68 505 rlineto
          274 hlineto
          15 112 rlineto
          -274 hlineto
          40 293 rlineto
          290 hlineto
          15 112 rlineto
          -290 hlineto
          69 502 rlineto
          -141 hlineto
          -68 -502 rlineto
          -540 hlineto
          -271 502 rlineto
          -134 hlineto
          -69 -502 rlineto
          -268 hlineto
          -15 -112 rlineto
          268 hlineto
          -40 -293 rlineto
          -277 hlineto
          -16 -112 rlineto
          278 hlineto
          -69 -505 rlineto
          318 1315 rmoveto
          145 -280 7 -13 rlineto
          -190 hlineto
          394 -112 rmoveto
          464 hlineto
          -40 -293 rlineto
          -265 hlineto
          -568 293 rmoveto
          266 hlineto
          159 -293 rlineto
          -465 hlineto
          858 -112 rmoveto
          -4 -32 -37 -280 -117 254 -32 58 rlineto
          endchar
        </CharString>
        <CharString name="uni20AA">
          729 111 256 799 241 hstem
          229 1438 vstem
          640 326 rmoveto
          -235 -27 158 -91 228 hhcurveto
          477 hlineto
          191 1522 rlineto
          -130 hlineto
          -56 -478 -64 -455 -53 -478 rrcurveto
          -272 hlineto
          -240 -93 55 147 16 hvcurveto
          113 853 rlineto
          -142 hlineto
          -385 -1166 rmoveto
          177 1407 rlineto
          366 hlineto
          221 19 -97 -181 -21 hvcurveto
          -104 -762 rlineto
          141 hlineto
          100 735 rlineto
          206 24 -5 214 -305 hhcurveto
          -554 hlineto
          -191 -1522 rlineto
          endchar
        </CharString>
        <CharString name="uni20B1">
          331 646 200 82 210 82 214 hstem
          129 1385 22 callgsubr
          253 202 114 204 97 hvcurveto
          251 hlineto
          12 82 rlineto
          -231 hlineto
          19 63 10 70 1 77 rrcurveto
          219 hlineto
          12 82 rlineto
          -235 hlineto
          223 -28 -160 105 -265 -108 -103 -17 -111 hhcurveto
          -88 hlineto
          -39 -311 rlineto
          -206 hlineto
          -12 -82 rlineto
          207 hlineto
          -26 -210 rlineto
          -199 hlineto
          -12 -82 rlineto
          200 hlineto
          -106 -845 30 callgsubr
          189 107 -71 -143 26 hvcurveto
          -599 hlineto
          -10 -82 rmoveto
          615 hlineto
          -2 -79 -11 -70 -20 -61 rrcurveto
          -608 hlineto
          -10 -82 rmoveto
          582 hlineto
          -72 -129 -129 -68 -187 40 callgsubr
        </CharString>
        <CharString name="uni20B2">
          379 -258 2020 hstem
          189 1135 vstem
          189 627 rmoveto
          5 -301 132 -323 336 -19 -34 -242 rcurveline
          135 hlineto
          33 248 116 13 101 34 77 24 rlinecurve
          55 16 43 13 39 4 82 635 rcurveline
          -429 hlineto
          -15 -121 281 -1 -54 -421 rlineto
          -43 -115 -142 -42 -115 hhcurveto
          -276 -99 277 266 -3 hvcurveto
          371 -4 191 409 392 hhcurveto
          182 115 -47 -35 59 hvcurveto
          47 137 -38 12 -60 19 -90 27 -147 7 rlinecurve
          29 218 rlineto
          -135 hlineto
          -29 -220 -380 -37 -296 -361 11 -517 rlinecurve
          endchar
        </CharString>
        <CharString name="uni20B5">
          242 10 -21 hstem
          145 1113 vstem
          543 -354 rmoveto
          113 hlineto
          51 339 201 5 166 53 68 68 rlinecurve
          -43 97 -87 -57 -116 -47 -172 -7 rlinecurve
          200 1335 148 -3 104 -34 34 -24 rlinecurve
          48 121 -69 23 -105 28 -143 3 rlinecurve
          41 269 rlineto
          -113 hlineto
          -42 -275 rlineto
          -395 -48 -287 -341 -498 vvcurveto
          -295 124 -326 325 -43 vhcurveto
          18 115 rmoveto
          -227 45 -85 240 5 288 5 430 195 275 305 43 rrcurveto
          endchar
        </CharString>
        <CharString name="uni20B9">
          278 745 288 121 254 hstem
          169 1208 vstem
          169 627 rmoveto
          -3 25 83 -6 112 hhcurveto
          80 93 4 11 96 hvcurveto
          -113 133 83 -520 72 hhcurveto
          177 hlineto
          -111 142 -62 399 -136 127 135 48 161 103 45 214 rrcurveto
          194 hlineto
          17 121 rlineto
          -197 8 hlineto
          109 -33 81 -39 56 vhcurveto
          263 hlineto
          17 122 rlineto
          -1127 hlineto
          -16 -122 rlineto
          678 hlineto
          75 -43 30 -89 -84 vvcurveto
          -13 -1 -13 -1 -12 vhcurveto
          -775 hlineto
          -17 -121 rlineto
          769 hlineto
          -187 -64 -177 -101 -228 hhcurveto
          -164 -108 -1 8 -68 hvcurveto
          -14 -125 rlineto
          endchar
        </CharString>
        <CharString name="uni20BA">
          354 0 1538 hstem
          153 1246 vstem
          532 hmoveto
          426 378 253 421 56 hvcurveto
          7 45 rlineto
          -158 hlineto
          -410 -53 -316 -175 -322 hhcurveto
          68 522 513 211 18 129 -514 -211 34 260 530 219 19 135 -531 -220 47 359 rlineto
          -156 hlineto
          -56 -427 -308 -127 -19 -135 309 128 -34 -260 -300 -123 -17 -128 300 123 -77 -589 rlineto
          endchar
        </CharString>
        <CharString name="uni2113">
          96 -16 123 1438 135 hstem
          283 130 523 129 vstem
          76 131 rmoveto
          96 -83 56 43 54 46 54 47 rlinecurve
          -130 52 89 -70 113 hhcurveto
          232 123 205 222 47 hvcurveto
          -124 19 rlineto
          -216 -35 -112 -107 -117 hhcurveto
          -70 -62 52 120 -33 hvcurveto
          359 347 267 423 404 vvcurveto
          133 -67 94 -114 -341 -260 -621 -547 -70 5 -63 10 -57 vhcurveto
          -69 -64 -74 -64 -79 -63 rrcurveto
          339 306 rmoveto
          -2 24 0 25 27 vvcurveto
          451 207 581 227 56 33 -54 -63 -307 -187 -343 -334 -341 vhcurveto
          endchar
        </CharString>
        <CharString name="uni2215">
          -14 callgsubr
        </CharString>
        <CharString name="uni2219">
          -424 630 3 callgsubr
          hstemhm
          243 210 hintmask 00000000
          hintmask 01100000
          243 722 -37 callgsubr
        </CharString>
        <CharString name="uogonek">
          70 -435 113 303 130 -90 -21 callsubr
          -16 callgsubr
          250 148 hintmask 00000000
          hintmask 11011100
          -71 callgsubr
          -29 -258 -1 -1 rlineto
          -89 -49 -175 -100 -140 vvcurveto
          -59 51 -90 137 -10 callsubr
          -51 -37 28 52 hvcurveto
          hintmask 10111100
          94 155 96 79 52 vhcurveto
          21 hlineto
          152 1140 rlineto
          -149 hlineto
          -95 -725 rlineto
          hintmask 11011100
          -102 callgsubr
          endchar
        </CharString>
        <CharString name="uring">
          -51 callsubr
          138 83 356 84 -16 callgsubr
          148 33 callsubr
          hintmask 00011011
          692 1258 -61 callsubr
          hintmask 00000000
          -585 -1075 -77 callsubr
          hintmask 10100100
          -29 -262 rlineto
          138 hlineto
          152 1140 rlineto
          -149 hlineto
          -95 -725 rlineto
          hintmask 01100100
          -102 callgsubr
          endchar
        </CharString>
        <CharString name="utilde">
          -51 callsubr
          259 27 callgsubr
          113 152 28 764 hintmask 00000000
          hintmask 10100100
          -71 callgsubr
          hintmask 01100100
          -29 -262 rlineto
          138 hlineto
          152 1140 rlineto
          -149 hlineto
          -95 -725 rlineto
          hintmask 10100100
          -102 callgsubr
          hintmask 00000000
          248 1150 rmoveto
          hintmask 00010010
          2 callsubr
          hintmask 00011010
          -81 callsubr
          hintmask 00010010
          -22 callsubr
        </CharString>
        <CharString name="v">
          -103 7 -21 1154 -20 hstem
          835 144 vstem
          286 -14 rmoveto
          135 10 181 210 179 213 178 296 20 289 rlinecurve
          3 55 -1 44 -4 37 rrcurveto
          -142 hlineto
          5 -39 -18 -138 -12 -71 -41 -234 -91 -149 -128 -184 -167 -209 rcurveline
          -22 238 -82 786 rlineto
          -165 hlineto
          114 -786 rlineto
          endchar
        </CharString>
        <CharString name="w">
          0 callsubr
          hstem
          1434 147 vstem
          292 -14 -101 callgsubr
          endchar
        </CharString>
        <CharString name="wacute">
          0 callsubr
          129 455 hstemhm
          828 423 183 147 hintmask 00110000
          891 1249 -93 callsubr
          hintmask 11001000
          -536 -1318 -101 callgsubr
          endchar
        </CharString>
        <CharString name="wcircumflex">
          0 callsubr
          155 435 hstemhm
          608 683 143 147 hintmask 00110000
          667 1275 -89 callgsubr
          hintmask 11001000
          -316 -1348 -101 callgsubr
          endchar
        </CharString>
        <CharString name="wdieresis">
          0 callsubr
          290 213 hstemhm
          633 27 callsubr
          177 147 hintmask 00000000
          hintmask 00111000
          1140 1410 -97 callgsubr
          hintmask 11000100
          -427 -1424 -101 callgsubr
          endchar
        </CharString>
        <CharString name="wgrave">
          0 callsubr
          129 452 hstemhm
          566 409 459 147 hintmask 11001000
          292 -14 -101 callgsubr
          hintmask 00110000
          675 895 -69 callgsubr
        </CharString>
</ttFont>
